<?xml version="1.0" encoding="utf-8"?>
<!-- Generator: Adobe Illustrator 12.0.1, SVG Export Plug-In . SVG Version: 6.00 Build 51448)  -->
<!DOCTYPE svg PUBLIC "-//W3C//DTD SVG 1.1//EN" "http://www.w3.org/Graphics/SVG/1.1/DTD/svg11.dtd" [
<!ENTITY ns_svg "http://www.w3.org/2000/svg">
<!ENTITY ns_xlink "http://www.w3.org/1999/xlink">
]>
<svg xmlns="http://www.w3.org/2000/svg" xmlns:xlink="http://www.w3.org/1999/xlink" xmlns:svg="http://www.w3.org/2000/svg" xmlns:dc="http://purl.org/dc/elements/1.1/" xmlns:cc="http://web.resource.org/cc/" xmlns:rdf="http://www.w3.org/1999/02/22-rdf-syntax-ns#" version="1.1" id="Layer_1" width="413.847" height="343.745" viewBox="0 0 413.847 343.745" overflow="visible" enable-background="new 0 0 413.847 343.745" xml:space="preserve">
<g>
	<path fill-rule="evenodd" clip-rule="evenodd" d="M170.285,53.182c4.185-8.352,11.59,8.482,3.082,8.476   c-0.064,1.22,0.371,2.939-0.771,3.082l-0.899-1.156l-1.413,0.385c0.498-3.067-2.04-3.098-1.541-6.165l1.413,0.385l0.899-1.156   c1.244-0.217,1.326,0.729,2.312,0.771c0.14-1.681-0.631-2.451-2.312-2.312l0.385-1.413L170.285,53.182z"/>
	<path fill-rule="evenodd" clip-rule="evenodd" d="M128.677,77.068c4.098-4.485,13.297-9.784,19.263-3.853l-1.046,0.936l0.275,1.376   c-5.595-2.483-9.521,1.905-11.558,5.394c-3.141,0.573-2.653-2.483-6.165-1.541l0.385-1.413L128.677,77.068z"/>
	<path fill-rule="evenodd" clip-rule="evenodd" d="M126.597,79.611l1.31,0.539c-0.184,2.127-2.865,1.758-3.853,3.082   c-2.076-0.872-2.028-5.329,1.541-4.623L126.597,79.611z"/>
	<path fill-rule="evenodd" clip-rule="evenodd" d="M126.365,96.331c-2.878-0.824-2.196,1.913-4.623,1.541   c-0.078-2.389,0.942-3.681,1.541-5.394c1.914-0.116,3.198,0.398,3.853,1.541l-1.156,0.899L126.365,96.331z"/>
	<path fill-rule="evenodd" clip-rule="evenodd" d="M146.399,134.086c0.686,0.341,1.378,0.677,1.541,1.541   c6.292-0.128,11.996,0.333,16.951,1.541c-2.992,6.519-14.544-0.345-20.804,2.312c-1.68-1.611,0.385-2.199,0-4.623l1.413,0.385   L146.399,134.086z"/>
	<path fill-rule="evenodd" clip-rule="evenodd" d="M70.888,157.973c-2.256,2.11-2.798,5.934-5.394,7.705   c-5.936-4.066-4.593-11.824,0-16.181C69.724,149.891,69.471,154.766,70.888,157.973z"/>
	<path fill-rule="evenodd" clip-rule="evenodd" d="M82.446,149.497c7.478,3.584,2.949,11.107,0,16.181   c-3.312-1.312-3.767-5.479-5.394-8.476C78.176,153.96,79.54,150.958,82.446,149.497z"/>
	<path fill-rule="evenodd" clip-rule="evenodd" d="M396.818,153.35c0.752,3.103-4.604,3.103-3.853,0   C394.433,151.906,394.901,153.265,396.818,153.35z"/>
	<path fill-rule="evenodd" clip-rule="evenodd" d="M57.019,171.071c-2.007-1.56-3.808-3.476-3.853-5.394   c-0.162-6.871,5.817-7.763,6.164-1.541C59.483,166.883,57.061,167.245,57.019,171.071z"/>
	<path fill-rule="evenodd" clip-rule="evenodd" d="M376.014,165.678c4.326,0.236,2.909,6.198-0.771,3.853   C374.998,167.744,375.368,166.572,376.014,165.678z"/>
	<path fill-rule="evenodd" clip-rule="evenodd" d="M377.555,175.695c0.14,1.681-0.631,2.451-2.312,2.312   c-0.213-2.971-5.031-4.233-2.312-7.706c3.318-1.007,2.437,2.187,3.853,3.082l-0.386,1.413L377.555,175.695z"/>
	<path fill-rule="evenodd" clip-rule="evenodd" d="M378.71,173.768l-1.155-0.385c-0.538-2.849,1.219-3.404,3.853-3.082   c-0.125,0.896,0.17,1.371,0.771,1.541c-0.145,2.167-1.341,3.283-3.853,3.082L378.71,173.768z"/>
	<path fill-rule="evenodd" clip-rule="evenodd" d="M151.792,178.777c1.153,2.012,1.163,8.524-4.623,7.705   C145.019,182.948,146.872,177.71,151.792,178.777z"/>
	<path fill-rule="evenodd" clip-rule="evenodd" d="M412.228,183.4c2.593,0.304,2.065,5.969-1.541,4.623   C410.318,185.599,411.785,185.011,412.228,183.4z"/>
	<path fill-rule="evenodd" clip-rule="evenodd" d="M402.982,187.252c0.771,0,1.541,0,2.312,0c0,1.284,0,2.568,0,3.853   C403.127,191.216,403.072,189.218,402.982,187.252z"/>
	<path fill-rule="evenodd" clip-rule="evenodd" d="M87.839,190.334c2.958,1.365,2.884,7.817,0.771,10.017   C83.578,198.908,84.962,193.298,87.839,190.334z"/>
	<path fill-rule="evenodd" clip-rule="evenodd" d="M88.61,201.892c0.109,2.973,2.604,3.561,2.312,6.935   c-2.221,1.408-2.41,1.25-5.394,0.771c2.15-3.324,0.306-2.839-0.771-6.164C86.227,203.105,86.151,201.232,88.61,201.892z"/>
	<path fill-rule="evenodd" clip-rule="evenodd" d="M359.062,212.679c0.892,3.214-0.064,3.802-0.77,6.935   c-2.674-1.365-1.603-2.994-4.624-0.771c-1.574-2.862,0.27-4.842,0.771-7.705c1.383-0.098,1.626,0.943,3.082,0.771l0.386,1.156   L359.062,212.679z"/>
	<path fill-rule="evenodd" clip-rule="evenodd" d="M393.736,210.368c1.52,0.831,1.316,6.393-1.541,5.394   C390.611,212.948,392.542,212.301,393.736,210.368z"/>
	<path fill-rule="evenodd" clip-rule="evenodd" d="M164.891,336.733c0.514,0,1.027,0,1.541,0l-0.385,1.413l1.155,0.899   c-0.704,1.351-1.432,2.677-3.853,2.312c0.315-1.856-1.407-1.675-0.771-3.854l1.413,0.386L164.891,336.733z"/>
	<path fill-rule="evenodd" clip-rule="evenodd" d="M139.85,339.43l0.385,1.156c0.098,1.382-0.943,1.625-0.771,3.082   c-1.024-0.774-2.867-0.729-3.082-2.312l1.155-0.899l-0.385-1.412c1.244,0.217,1.326-0.729,2.312-0.771L139.85,339.43z"/>
	<path fill-rule="evenodd" clip-rule="evenodd" d="M378.326,232.713c0.212,2.704,2.87-1.934,3.082,0.771   c-1.237,7.844-10.23,2.411-15.41,1.541l1.155-0.899l-0.385-1.412c3.831,0.235,7.069-0.122,10.017-0.771l0.385,1.155   L378.326,232.713z"/>
	<path fill-rule="evenodd" clip-rule="evenodd" d="M349.431,241.831l1.155,0.899c0.677,1.362,2.442,2.249,0.771,3.853   c-5.65,0.874-10.294-1.409-13.099,2.312c0.896-3.77-1.606,0.071-2.312,0c-0.574-0.058-1.187-1.24-2.312-1.541   c-4.596-1.228-9.78,2.023-13.099,2.312c-12.095,1.051-24.906-2.902-32.362-9.246c-8.303-7.064-17.268-14.979-25.427-23.116   c-7.744-7.724-17.242-16.784-26.198-23.115c0-2.312,0-4.623,0-6.935c-5.308,8.785-3.791,18.477-7.705,26.968   c-1.077,2.338-4.146,3.737-5.394,6.165c-2.688,5.235-2.49,10.625-3.082,16.951c-3.855,4.877-3.499,13.966-6.164,20.033   c2.948,3.721,1.549,7.926,2.312,12.328c1.946,11.23,6.136,24.247,3.853,34.674c-2.804,12.805-4.782,27.087-9.246,38.526   c-0.895,0.646-2.065,1.016-3.853,0.771l0.385-0.771l-0.385-0.771c2.455-12.723,6.989-27.396,4.623-42.379   c-5.381,8.745-12.717,15.535-15.41,26.968l-1.413-0.385l-0.898,1.155c-3.008-30.297-11.343-63.35-1.542-91.691l0.899,1.155   l1.413-0.385c-0.142,0.655,0.3,0.727,0.771,0.771c6.612-23.391,15.812-49.336,17.722-77.823   c1.238-18.461,0.326-38.155-3.082-53.937c-11.823-2.233-20.111-1.51-29.28-3.853c-0.169,2.481,1.363,3.26,0.771,6.164l-1.413-0.385   l-0.899,1.156c-3.322-6.694-2.828-17.205-5.394-24.657l1.413,0.385l0.899-1.156c0.622,0.535,2.11,1.199,2.312,0l1.413,0.385   l0.899-1.156c3.505,1.417,4.275,0.819,6.164,3.853l-1.156,0.899l0.385,1.413c-0.585-0.424-1.759,0.544-1.541,0.771   c2.177,2.261,19.348,9.793,22.345,8.476c-0.797,0.35-1.45-0.35-1.541-0.771l1.155-0.899L206.5,94.79   c15.474,1.735,30.231,4.185,40.838,10.787c2.8,5.925,7.429,10.902,10.787,16.952c5.001,9.01,7.773,19.708,16.181,25.427   c0,1.284,0,2.569,0,3.853l-1.002,1.001l-0.539,1.31c-12.381-12.019-19.819-28.98-28.509-44.69   c-2.856-2.307-13.602-7.396-17.723-4.623c3.898,0.211,7.825,0.394,8.476,3.853c-1.203,1.108-2.682,1.941-3.082,3.853   c4.27,8.573,2.532,23.152,5.394,33.132l1.156,0.385l1.156-0.385c1.443,1.468,0.084,1.936,0,3.853   c2.024,0.001,2.036-4.489,2.312-6.935c0.352-3.136,1.111-8.284-0.771-8.476c-0.064,1.22,0.37,2.939-0.771,3.082l-0.898-1.156   l-1.413,0.385c0.51-8.478-2.327-17.697,0-25.427c5.524-0.531,7.726,8.629,9.247,14.64c2.029,1.118,2.725,2.792,3.853,4.623   c0.98,1.593,1.272,3.939,2.312,5.394c1.863,2.609,4.758,2.99,5.394,6.164c2.447,12.227-11.574,16.699-16.951,24.657l-0.899-1.156   l-1.412,0.385c-0.731-1.92,2.751-4.648-0.771-4.623c0.359,3.034-1.615,4.001,0.771,5.394l0.898,1.156l1.413-0.385   c-0.082,0.138,0.105,1.518,0,1.541c7.906-1.709,13.055-16.192,21.574-19.263c3.924,3.01,7.922,5.947,10.017,10.787   c-2.462,7.298-13.39,6.13-17.722,11.558c7.364-1.625,12.388-5.591,20.804-6.164c8.714,7.211,16.268,15.581,23.116,24.657   c-2.231,5.988-10.814,5.624-14.641,10.017c7.382,0.73,12.881-3.923,17.723-9.246c5.431-0.809,8.201,1.045,9.246,4.623   c-4.452,3.767-8.042,8.396-12.328,12.328c-0.91-1.145-0.667-3.442-3.083-3.082l-0.898-1.155l-1.413,0.385   c-5.227-2.975-9.129,8.216-2.312,9.246c1.448-1.12,0.094-5.043,1.541-6.164l1.156,0.386l1.155-0.386   c2.457,3.194-0.155,11.457,5.395,11.558c0.372-12.212,7.025-18.144,15.41-22.345c6.944,2.325,14.492-2.592,23.115-3.082   c1.604,5.825-2.408,9.718-1.541,18.492c0.344,3.475,1.917,7.566,3.082,11.559c1.253,4.293,1.885,9.129,3.082,11.558   c0.98,1.986,3.344,5.004,5.394,5.394L349.431,241.831z M240.402,155.661c0.124-0.537-0.269-4.484-0.77-2.312   C238.955,156.283,240.045,157.208,240.402,155.661z M237.32,180.318c-0.017-4.384,2.033-6.7,3.082-10.017   c-0.984-0.042-1.066-0.987-2.312-0.771C237.824,172.628,235.172,177.364,237.32,180.318z M265.83,185.711   c-3.624,0.881-7.004,3.955-9.246,4.623c7.87-0.605,14.186-2.766,22.345-3.082C276.222,183.905,270.169,184.657,265.83,185.711z    M282.781,210.368c0.131-1.928-1.184-2.412-2.312-3.082C280.252,209.301,280.75,210.6,282.781,210.368z M286.633,222.697   c4.034,0.485,11.504,5.238,14.641,1.541c-1.964-3.589-5.052-0.185-7.706-0.771c-4.904-1.083-6.263-5.273-10.017-7.706   C283.806,218.846,285.65,220.341,286.633,222.697z"/>
	<path fill-rule="evenodd" clip-rule="evenodd" d="M149.096,272.652l1.156,0.898c-0.991,1.321-1.593,3.03-3.853,3.082   c-0.075-1.979-3.008-1.102-3.082-3.082l1.045-0.936l-0.275-1.376c1.244-0.217,1.326,0.729,2.312,0.771l1.541,1.156v-1.927   c0.514,0,1.027,0,1.541,0L149.096,272.652z"/>
	<path fill-rule="evenodd" clip-rule="evenodd" d="M105.176,184.556l-1.156,0.385c-0.883-9.181-4.252-21.072-2.312-32.362   l0.899,1.156l1.413-0.385c0.414,11.658,3.266,20.877,5.394,30.821l-1.156-0.385l-0.386,1.156c-0.514,0-1.027,0-1.541,0   L105.176,184.556z"/>
	<path fill-rule="evenodd" clip-rule="evenodd" d="M106.974,123.685l-1.413,0.385c-0.569-2.823,1.896-4.281,0-6.164   c-4.664-3.494-12.886-0.343-18.492,0c-2.785,5.294-6.727,19.622-1.541,25.427l-1.156,0.899l0.385,1.413   c-11.615,1.24-24.777-2.101-32.362,0c-1.049,16.043-0.936,30.19,0,43.149c0.514,0,1.027,0,1.541,0l-0.385,1.412l1.156,0.899   c-11.468,1.117-17.428,7.743-23.886,13.869c0.313,11.349,3.266,16.044,5.394,24.657l-1.156-0.386l-0.385,1.156   c-0.257,0-0.514,0-0.771,0l-0.899-1.156l-1.413,0.386c0.326-1.611-0.528-2.041-0.771-3.082c-1.094-0.066-2.182-0.128-2.312,0.771   l-1.156-0.386l-1.156,0.386c-0.655,0.142-0.727-0.301-0.771-0.771c-1.245-0.218-1.327,0.728-2.312,0.771l-0.899-1.156l-1.413,0.386   c0.204-3.344-2.99-0.327-3.083,0.771c1.027,0,2.055,0,3.083,0l1.156,0.385l1.156-0.385c-2.83,23.162,9.729,37.499,19.263,50.854   c-0.551,2.093,3.633-0.551,3.082,1.542c-0.096,7.115-8.309,7.494-16.181,10.017c-6.214,1.99-11.322,6.468-13.87,6.935   c-7.004,1.282-11.713-1.81-14.64-6.164C-0.19,276.194,2.643,261.397,0,251.976l1.156,0.386l1.156-0.386   c2.354-6.379,3.287-14.178,6.935-19.263c-3.725,0.385-4.816,3.402-6.935,5.394l-0.899-1.156L0,237.336   c0.979-6.974-0.911-13.475,0.771-19.264c1.593-5.483,7.729-12.162,12.328-18.492c4.514-6.213,8.453-13.441,12.329-18.492   c2.475-3.227,4.962-4.907,6.935-8.476c0.875-1.584,1.452-3.53,2.312-5.394c1.679-3.64,2.733-5.709,4.623-10.787   c5.053,2.909,5.573,10.351,6.935,16.951c1.028-3.279,0.329-8.977-1.541-13.869c-1.094-2.862-3.332-3.865-3.082-6.164   c0.211-1.945,2.344-5.967,6.164-4.624c-2.011-5.185-1.59-12.657,3.083-16.951c3.998-3.675,11.106-4.228,16.951-6.935   c12.596-5.833,21.944-19.29,30.821-22.345c-0.146-0.624-0.773-0.768-0.771-1.541l1.156-0.899l-0.385-1.413   c2.357-0.559,2.267,1.329,4.623,0.771c0.408-0.62,0.804-1.251,0.771-2.312l1.413,0.385l0.899-1.156   c1.997,2.035,2.865,0.733,5.394,1.541l0.936,1.045l1.376-0.275c-1.112,2.483-0.729,6.463-0.771,10.017l-1.156,0.899l0.385,1.413   c-3.765,2.399-1.836,10.493-4.624,13.87L106.974,123.685z"/>
	<path fill-rule="evenodd" clip-rule="evenodd" d="M95.416,220.77l0.899-1.156c11.131,15.837,19.405,34.532,20.034,60.871   c0.514,0,1.027,0,1.541,0l0.385,1.156l1.156-0.385c-2.659,11.567-6.032,24.193-9.246,36.984   c-1.831,7.282-1.271,16.164-5.394,22.346c-4.434-2.206-3.848-8.788-4.623-13.1c-2.457-13.664-6.202-29.375-10.017-42.378   c-0.514,0-1.027,0-1.541,0l0.385-1.156l-1.156-0.385c-1.722-4.323-3.564,3.278-3.853,5.394l-1.413-0.386l-0.899,1.156   c-0.624-0.146-0.768-0.773-1.541-0.771c-0.315,2.767-0.195,5.969-2.312,6.935l-0.899-1.156l-1.413,0.386   c0.794-29.092,12.865-44.084,20.804-67.035c0.318-3.657-2.629-4.049-2.312-7.705L95.416,220.77z M84.757,275.862   c-0.213-1.351,2.169-3.844,0-4.623C84.97,272.589,82.587,275.083,84.757,275.862z"/>
	<path fill-rule="evenodd" clip-rule="evenodd" d="M85.143,291.658l1.156-0.385c-0.959,7.773-3.553,13.912-4.623,21.574   c-1.708,0.424-1.097-1.471-2.312-1.541l-0.386-1.155l-1.155,0.385c0.857-7.105,2.541-13.383,3.853-20.033l1.156,0.385l1.156-0.385   c0.257,0,0.514,0,0.771,0L85.143,291.658z"/>
	<path fill-rule="evenodd" clip-rule="evenodd" d="M75.125,325.561l1.156-0.386c-0.089,2.496-1.472,10.329-2.312,14.641   l-1.156-0.386l-1.156-0.385c-0.257,0-0.514,0-0.771,0l-0.899-1.156l-1.413,0.385c1.706-5.229,1.261-12.608,3.082-17.722   l0.899,1.156l1.413-0.386c0.064,1.221-0.371,2.939,0.771,3.082L75.125,325.561z"/>
	<path fill-rule="evenodd" clip-rule="evenodd" d="M79.749,205.103l-1.156-0.899c0-0.514,0-1.027,0-1.541   c-5.212-3.375-15.767,0.456-22.345,0.771l0.385-1.412l-1.156-0.899c3.344-5.131,14.286-2.665,20.033-5.394   c-0.598-0.686-0.828-1.74-0.771-3.082l1.413,0.386l0.899-1.156c1.856,0.315,1.675-1.407,3.853-0.771   c1.338,6.41,5.584,10.106,1.541,16.181c-1.382,0.098-1.625-0.943-3.082-0.771L79.749,205.103z"/>
	<path fill-rule="evenodd" clip-rule="evenodd" d="M73.695,190.5l0.275,1.376c-1.351-0.704-3.844-0.265-4.623-1.541l0.385-1.156   l-0.385-1.155c1.846-2.147-3.125-4.033-2.312-7.705c2.497-3.411,2.736-9.079,6.935-10.788c1.294,4.1,2.348,8.44,4.624,11.558   c-1.268,2.586-6.3,4.646-3.853,8.476L73.695,190.5z"/>
	<path fill-rule="evenodd" clip-rule="evenodd" d="M47.387,274.707l0.385-1.156c1.14,0.893,1.942,0.893,3.083,0l0.385,1.156   l0.385,1.155c1.095,2.368,0.346,3.466-0.771,5.395c-2.899-0.184-3.005-3.16-3.853-5.395L47.387,274.707z"/>
	<path fill-rule="evenodd" clip-rule="evenodd" d="M93.618,98l0.385,1.413c-3.062,0.493-4.159-0.978-5.394-2.312   c0.287-2.576,5.636-1.732,6.164,0L93.618,98z"/>
	<path fill-rule="evenodd" clip-rule="evenodd" d="M100.296,89.782l-0.899,1.156c-3.153-3.427-1.13-7.296-1.541-13.099   c0.061-2.886-3.322-2.329-2.312-6.164l1.413,0.385l0.899-1.156c7.685-0.118,12.999,6.409,16.181,13.099l-1.413-0.385l-0.899,1.156   c-1.371-0.685-1.958-2.151-4.624-1.541c-1.839-1.526-2.537-8.215-6.164-5.394c1.126,0.672,2.984,0.612,2.312,3.082l-1.156,0.385   l0.385,1.156c-0.257,0-0.514,0-0.771,0c-1.806,2.033-0.129,5.254,0,7.706L100.296,89.782z"/>
	<path fill-rule="evenodd" clip-rule="evenodd" d="M95.416,42.78l-1.413,0.385c-3.241-2.791-1.226-4.794,0-8.476   c1.787-0.246,2.958,0.124,3.853,0.771c0.742-2.796-3.462-0.647-3.082-3.082c-0.12-2.175,2.178-1.932,3.082-3.083   c-1.159-6.053,5.265-8.585,3.853-12.328c1.042-2.631,6.28-2.254,3.853-6.164c4.261-0.62,4.862-4.898,10.017-4.623   c0.034-1.318-0.573-1.996-1.541-2.312c11.439-3.159,29.182-5.583,43.919-2.312c6.104,1.355,14.885,7.394,16.952,13.869   c2.068,6.479-0.133,15.117,3.082,23.116c-0.343,2.482-1.476,4.174-1.541,6.935c0.323,2.502,3.431,2.22,3.082,5.394l-1.156-0.385   l-1.156,0.385c-4.319-5.176-12.522-0.964-14.64,6.164c-0.824,2.773,2.295,9.123-2.312,10.017   c-4.163-5.854,0.601-20.634-6.164-23.886c-7.849,0.738-30.679,16.071-33.903,6.164l-0.385-0.385l-0.385-0.385   c0.257,0,0.514,0,0.771,0c-0.07-2.102,1.283-1.551,0-3.082h0.771v-0.771c1.532-8.232,6.497-17.126,6.935-23.886   c-3.751,6.315-7.897,16.178-7.705,23.886h-0.771v0.771c-1.284,1.531,0.07,0.98,0,3.082l-1.156-0.385l0.385,1.156   c-6.723,3.422-15.108-4.252-22.345-5.394L95.416,42.78z M133.3,12.344c-0.507-3.873,4.644-6.109,3.083-8.476   c-3.853,8.476-5.009,9.375-5.009,9.375l0.385,1.413c-1.318-0.034-1.996,0.573-2.312,1.541c2.312-1.541,3.467-2.44,3.467-2.44   l-0.385-1.413C132.529,12.344,131.428,9.667,133.3,12.344z M165.662,18.508c1.912,0.113,3.739,0.144,3.853-1.541   C167.603,16.854,165.775,16.824,165.662,18.508z"/>
	<path fill-rule="evenodd" clip-rule="evenodd" d="M172.725,76.683l1.413-0.385c2.014,1.325,5.399,1.278,5.394,4.623l-1.376-0.275   l-0.936,1.045c-0.75,0.021-0.598,0.943-0.771,1.541l-1.413-0.385l-0.899,1.156c-1.563-0.491-0.507-3.602-2.312-3.853   c-0.653,1.146-2.481,1.115-3.853,1.541c0,1.798,0,3.596,0,5.394l-1.413-0.385l-0.899,1.156c-1.874-2.68-0.517-8.709,0.771-10.787   c1.541,0,3.083,0,4.624,0c-0.125-0.896,0.17-1.371,0.771-1.541L172.725,76.683z"/>
	<path fill-rule="evenodd" clip-rule="evenodd" d="M359.705,170.686l-1.412,0.385c0.117-3.735,1.484-6.22,3.082-8.476l0.898,1.156   l1.413-0.385c1.352,3.528,1.352,4.947,0,8.476c-1.531,1.284-0.98-0.069-3.082,0L359.705,170.686z"/>
	<path fill-rule="evenodd" clip-rule="evenodd" d="M365.612,153.478l-1.155-0.899c1.749-0.562,1.365-3.258,2.312-4.624   c3.531,2.716,6.19,3.6,10.787,3.853l-1.156,0.899l0.386,1.413c-1.245-0.217-1.326,0.728-2.312,0.771l-1.156-1.349l-1.155,1.349   c-0.514,0-1.027,0-1.541,0l-2.312-0.963l-2.312,0.963c-0.257,0-0.514,0-0.771,0L365.612,153.478z"/>
	<path fill-rule="evenodd" clip-rule="evenodd" d="M411.073,170.686l1.155-0.385c1.144,0.655,1.657,1.939,1.541,3.853l-1.412-0.385   l-0.899,1.156c-0.514,0-1.027,0-1.541,0l-0.385-1.156l-1.156-0.385c0.401-1.14,1.141-1.942,1.541-3.082L411.073,170.686z"/>
	<path fill-rule="evenodd" clip-rule="evenodd" d="M397.974,189.178l1.155,0.386c-0.126,3.465-0.172,6.85,2.312,7.705l-0.385,1.413   l1.155,0.898c-0.67,1.128-1.153,2.442-3.082,2.312l-0.898-1.155l-1.413,0.385c0-0.514,0-1.027,0-1.541   c-3.101-2.568-7.106,0.082-9.246-3.853c6.423,8.945-6.519,16.408-8.476,7.705c-0.931-4.137,5.196-7.727,4.623-7.705   c-3.073-0.762-2.32,2.303-5.394,1.541c-1.918-1.165-3.522-2.642-3.853-5.394c2.238-5.521,6.298-6.293,11.558-3.082l0.898,1.155   l1.413-0.385c0,0.257,0,0.514,0,0.771c2.186,0.995,4.364-3.188,8.476-0.771c-0.125-0.896,0.17-1.371,0.771-1.541L397.974,189.178z"/>
	<path fill-rule="evenodd" clip-rule="evenodd" d="M399.258,216.917l1.412-0.386c0.648,1.921,1.009,4.129,0.771,6.936   c-1.133,2.931,3.444,0.151,2.312,3.082c-3.991,9.024-14.946,1.615-21.574,4.623l-0.386-1.156l-1.155-0.385   c-1.741-1.626-10.353-0.213-13.099-3.082l1.155-0.899l-0.385-1.412c8.897,0.604,17.431,1.575,24.656,3.853c0-2.055,0-4.109,0-6.164   c1.966-0.277,5.562-0.533,3.853-3.083l0.386-1.412l-1.156-0.899c0.125-0.902,1.405-0.649,2.312-0.771L399.258,216.917z"/>
	<path fill-rule="evenodd" clip-rule="evenodd" d="M121.357,109.044l-1.156-0.385c1.128-7.984,10.4-6.495,16.181-4.623l-1.156,0.899   l0.386,1.413c-2.671,0.411-7.309-1.144-7.706,1.541l-1.156,0.899l0.385,1.413c-1.809,1.821-3.785-0.125-6.164,0L121.357,109.044z"/>
	<path fill-rule="evenodd" clip-rule="evenodd" d="M165.277,124.198l-1.156-0.899c0.114-1.685,1.941-1.655,3.853-1.541   c0.434,1.672,1.84,6.31,0,7.705l-0.899-1.156l-1.413,0.385c-0.064-1.22,0.371-2.939-0.771-3.082L165.277,124.198z"/>
	<path fill-rule="evenodd" clip-rule="evenodd" d="M167.075,135.242l0.899-1.156c1.296,1.099,1.735,7.855-1.542,6.935   c-0.466-1.845-1.107-3.515-0.771-6.164L167.075,135.242z"/>
	<path fill-rule="evenodd" clip-rule="evenodd" d="M139.079,135.242l1.156-0.385c1.623,0.63,2.114,4.062,0.771,5.394   c-2.432,0.377-2.721-1.388-5.394-0.771l0.385-1.413l-1.156-0.899c1.365-0.947,3.122-1.501,3.853-3.082L139.079,135.242z"/>
	<path fill-rule="evenodd" clip-rule="evenodd" d="M134.302,138.941l1.31,0.539c-4.341,3.878-10.827,5.611-16.952,7.705   c-0.171-1.443-1.987-5.106,0-6.164l1.156,0.385l1.156-0.385c0,0.257,0,0.514,0,0.771c3.84,1.304,7.617-3.52,12.328-3.853   L134.302,138.941z"/>
	<path fill-rule="evenodd" clip-rule="evenodd" d="M191.731,176.08l-1.413,0.386c2.57-15.752-3.624-27.636-4.623-43.92l1.413,0.385   l0.899-1.156c4.144,14.321,7.454,29.188,8.476,44.69l-1.413-0.386l-0.898,1.156c-0.514,0-1.028,0-1.542,0L191.731,176.08z"/>
	<path fill-rule="evenodd" clip-rule="evenodd" d="M389.883,159.514c1.968,1.884,8.049-0.343,10.017,1.541l-0.385,1.156l1.155,0.385   c-1.2,5.548-11.637,4.541-12.328-0.771l1.002-1.001L389.883,159.514z"/>
	<path fill-rule="evenodd" clip-rule="evenodd" d="M387.443,186.867l-1.412,0.386c-1.035-1.127-1.575-6.103,0.771-6.164   c2.604-0.293,3.287,1.335,4.623,2.312c-0.183,2.386-2.144,2.992-3.082,4.623L387.443,186.867z"/>
	<path fill-rule="evenodd" clip-rule="evenodd" d="M378.71,157.587l1.156-0.385c1.984,0.583,2.677,2.459,2.312,5.394   c-3.513-2.349-6.621,2.035-7.705-0.771c0.33-2.752,1.935-4.229,3.853-5.394L378.71,157.587z"/>
	<path fill-rule="evenodd" clip-rule="evenodd" d="M371.776,165.292l1.156-0.385c-1.165,2.945-1.323,6.896-3.082,9.246l-0.899-1.156   l-1.412,0.385c0-1.798,0-3.596,0-5.394l2.16-0.787l0.151-2.295c0.257,0,0.514,0,0.771,0L371.776,165.292z"/>
	<path fill-rule="evenodd" clip-rule="evenodd" d="M368.437,176.85l1.413-0.385c-0.753,4.384-0.76,9.514-2.312,13.099l-0.899-1.156   l-1.412,0.386c0.142-0.655-0.301-0.727-0.771-0.771l-1.156-0.386l-1.155,0.386c1.791-4.116,3.559-8.255,5.394-12.328   L368.437,176.85z"/>
	<path fill-rule="evenodd" clip-rule="evenodd" d="M364.071,198.425l1.927-0.386c0.326,1.61-0.528,2.04-0.771,3.082l-1.156-0.385   l-1.155-0.386c-4.479,3.879-3.536-7.504-2.312-9.246l0.898,1.155l1.413-0.385c0.443,1.354-0.932,4.527,0.771,4.623L364.071,198.425   z"/>
	<g>
		<path fill-rule="evenodd" clip-rule="evenodd" fill="none" stroke="#000000" stroke-width="2.1898" stroke-linecap="round" d="    M142.161,65.125c1.208-3.934,1.297-8.374,3.082-12.329"/>
		<path fill-rule="evenodd" clip-rule="evenodd" fill="none" stroke="#000000" stroke-width="2.0866" stroke-linecap="round" d="    M169.129,68.207c1.97-0.751,2.309-2.805,2.568-4.623"/>
		<path fill-rule="evenodd" clip-rule="evenodd" fill="none" stroke="#000000" stroke-width="2.3679" stroke-linecap="round" d="    M171.441,54.081c-1.786,0.492-1.691,2.701-1.284,4.109"/>
		<path fill-rule="evenodd" clip-rule="evenodd" fill="none" stroke="#000000" stroke-width="2.4657" stroke-linecap="round" d="    M146.894,74.151c5.705,2.695,7.387,9.077,3.743,14.09"/>
		<path fill-rule="evenodd" clip-rule="evenodd" fill="none" stroke="#000000" stroke-width="2.4366" stroke-linecap="round" d="    M126.597,79.611c0.65-0.684,2.009-1.287,3.236-1.644"/>
		<path fill-rule="evenodd" clip-rule="evenodd" fill="none" stroke="#000000" stroke-width="2.1699" stroke-linecap="round" d="    M131.374,83.232c3.493,0.877,7.529,0.112,10.163-2.416c0.156-0.461,0.244-0.932,0.368-1.309"/>
		<path fill-rule="evenodd" clip-rule="evenodd" fill="none" stroke="#000000" stroke-width="2.1588" stroke-linecap="round" d="    M131.887,88.498c2.118,2.233,4.639,4.326,7.962,3.596"/>
		<path fill-rule="evenodd" clip-rule="evenodd" fill="none" stroke="#000000" stroke-width="2.6279" stroke-linecap="round" d="    M134.07,100.184c-3.568-0.531-5.408-3.377-8.09-5.265"/>
		<path fill-rule="evenodd" clip-rule="evenodd" fill="none" stroke="#000000" stroke-width="2.2464" stroke-linecap="round" d="    M146.784,109.044c-0.046-0.514-0.213-1.027-0.385-1.541"/>
		<path fill-rule="evenodd" clip-rule="evenodd" fill="none" stroke="#000000" stroke-width="2.3806" stroke-linecap="round" d="    M125.98,113.667c1.284,0,2.568,0,3.853,0"/>
		<path fill-rule="evenodd" clip-rule="evenodd" fill="none" stroke="#000000" stroke-width="2.3371" stroke-linecap="round" d="    M145.243,132.931c-0.015,0.771,0.117,1.541,0.257,2.312"/>
		<path fill-rule="evenodd" clip-rule="evenodd" fill="none" stroke="#000000" stroke-width="2.1055" stroke-linecap="round" d="    M56.633,156.046c0.251-0.145,0.502-0.289,0.753-0.434c0.568-0.803,0.528-2.261,0.383-3.263c-0.729-0.756-1.761-1.296-1.906-2.467"/>
		<path fill-rule="evenodd" clip-rule="evenodd" fill="none" stroke="#000000" stroke-width="2.1794" stroke-linecap="round" d="    M376.399,174.795c0.987-0.405,1.578-0.695,2.312-1.027"/>
		<path fill-rule="evenodd" clip-rule="evenodd" fill="none" stroke="#000000" stroke-width="1.8769" stroke-linecap="round" d="    M357.907,213.065c0.643-2.272,0.883-4.67,1.541-6.935"/>
		<path fill-rule="evenodd" clip-rule="evenodd" fill="none" stroke="#000000" stroke-width="2.2138" stroke-linecap="round" d="    M166.047,338.146c7.959-5.949,15.653-12.788,22.858-19.776"/>
		<path fill-rule="evenodd" clip-rule="evenodd" fill="none" stroke="#000000" stroke-width="2.3586" stroke-linecap="round" d="    M137.538,340.458c-8.631-7.277-13.535-18.121-22.345-25.299"/>
		<path fill-rule="evenodd" clip-rule="evenodd" fill="none" stroke="#000000" stroke-width="2.1633" stroke-linecap="round" d="    M139.85,339.43c5.341-6.646,7.956-15.473,14.511-20.933"/>
		<path fill-rule="evenodd" clip-rule="evenodd" fill="none" stroke="#000000" stroke-width="2.706" stroke-linecap="round" d="    M154.361,318.498c0.333-1.596,1.15-2.981,1.669-4.494"/>
		<path fill-rule="evenodd" clip-rule="evenodd" fill="none" stroke="#000000" stroke-width="2.1921" stroke-linecap="round" d="    M154.361,318.498c4.075,5.752,7.391,12.688,9.631,19.392"/>
		<path fill-rule="evenodd" clip-rule="evenodd" fill="none" stroke="#000000" stroke-width="2.0386" stroke-linecap="round" d="    M352.205,239.571c-0.894,0.687-1.82,1.67-2.773,2.26"/>
		<path fill-rule="evenodd" clip-rule="evenodd" fill="none" stroke="#000000" stroke-width="1.2484" stroke-linecap="round" d="    M204.573,343.283c1.321-0.054,1.951-0.377,3.082-0.385"/>
		<path fill-rule="evenodd" clip-rule="evenodd" fill="none" stroke="#000000" stroke-width="2.3956" stroke-linecap="round" d="    M195.327,327.873c-0.03-0.514-0.142-1.027-0.257-1.541"/>
		<path fill-rule="evenodd" clip-rule="evenodd" fill="none" stroke="#000000" stroke-width="2.0535" stroke-linecap="round" d="    M116.134,240.076c-0.558,6.379,2.448,12.482,2.526,18.835"/>
		<path fill-rule="evenodd" clip-rule="evenodd" fill="none" stroke="#000000" stroke-width="2.5223" stroke-linecap="round" d="    M116.134,240.076c-5.814-18.01-9.096-36.707-10.958-55.52"/>
		<path fill-rule="evenodd" clip-rule="evenodd" fill="none" stroke="#000000" stroke-width="2.6075" stroke-linecap="round" d="    M102.607,153.735c-0.291-10.217,1.852-20.136,4.367-30.05"/>
		<path fill-rule="evenodd" clip-rule="evenodd" fill="none" stroke="#000000" stroke-width="3.1204" stroke-linecap="round" d="    M91.603,214.487c1.826,1.719,3.198,3.822,3.813,6.283"/>
		<path fill-rule="evenodd" clip-rule="evenodd" fill="none" stroke="#000000" stroke-width="1.9069" stroke-linecap="round" d="    M118.275,281.641c0.567-3.356,1.975-6.452,1.926-10.017"/>
		<path fill-rule="evenodd" clip-rule="evenodd" fill="none" stroke="#000000" stroke-width="2.3818" stroke-linecap="round" d="    M72.814,342.512c0-1.027,0-2.055,0-3.082"/>
		<path fill-rule="evenodd" clip-rule="evenodd" fill="none" stroke="#000000" stroke-width="2.1657" stroke-linecap="round" d="    M69.347,342.512c0.446-1.513,0.224-3.108,0.642-4.623"/>
		<path fill-rule="evenodd" clip-rule="evenodd" fill="none" stroke="#000000" stroke-width="2.7002" stroke-linecap="round" d="    M72.557,321.708c1.592-9.021,1.784-18.144,4.366-26.969"/>
		<path fill-rule="evenodd" clip-rule="evenodd" fill="none" stroke="#000000" stroke-width="1.9569" stroke-linecap="round" d="    M66.65,222.311c4.163,7.141-5.575,11.766-9.824,15.41"/>
		<path fill-rule="evenodd" clip-rule="evenodd" fill="none" stroke="#000000" stroke-width="2.9968" stroke-linecap="round" d="    M56.826,237.721c-1.579,8.768,0.858,19.188-5.329,26.455"/>
		<path fill-rule="evenodd" clip-rule="evenodd" fill="none" stroke="#000000" stroke-width="1.9739" stroke-linecap="round" d="    M56.826,237.721c-2.824,0.284-5.341,1.748-7.384,3.596"/>
		<path fill-rule="evenodd" clip-rule="evenodd" fill="none" stroke="#000000" stroke-width="2.2114" stroke-linecap="round" d="    M44.69,235.41c3.893-8.357,14.222-9.723,21.96-13.099"/>
		<path fill-rule="evenodd" clip-rule="evenodd" fill="none" stroke="#000000" stroke-width="2.3749" stroke-linecap="round" d="    M66.65,222.311c3.898-2.363,6.554-6.362,10.367-8.966"/>
		<path fill-rule="evenodd" clip-rule="evenodd" fill="none" stroke="#000000" stroke-width="1.754" stroke-linecap="round" d="    M77.017,213.345c-0.232-2.006,0.853-4.481-1.313-5.866"/>
		<path fill-rule="evenodd" clip-rule="evenodd" fill="none" stroke="#000000" stroke-width="2.3079" stroke-linecap="round" d="    M75.704,207.479c-11.214,2.108-21.325,7.998-31.399,13.291"/>
		<path fill-rule="evenodd" clip-rule="evenodd" fill="none" stroke="#000000" stroke-width="2.006" stroke-linecap="round" d="    M75.704,207.479c1.108-1.022,2.665-1.628,4.045-2.376"/>
		<path fill-rule="evenodd" clip-rule="evenodd" fill="none" stroke="#000000" stroke-width="2.2478" stroke-linecap="round" d="    M56.633,202.021c-6.938,0.917-12.404,5.943-18.493,8.732"/>
		<path fill-rule="evenodd" clip-rule="evenodd" fill="none" stroke="#000000" stroke-width="1.796" stroke-linecap="round" d="    M38.141,242.344c-0.877-4.504-1.419-8.953-3.082-13.099"/>
		<path fill-rule="evenodd" clip-rule="evenodd" fill="none" stroke="#000000" stroke-width="2.6004" stroke-linecap="round" d="    M29.28,243.5c0.305,12.888,10.881,21.758,18.107,31.206"/>
		<path fill-rule="evenodd" clip-rule="evenodd" fill="none" stroke="#000000" stroke-width="2.2179" stroke-linecap="round" d="    M51.24,274.707c0.279-0.603,0.534-1.39,0.771-2.312"/>
		<path fill-rule="evenodd" clip-rule="evenodd" fill="none" stroke="#000000" stroke-width="2.5226" stroke-linecap="round" d="    M29.28,243.5c-2.745-4.896-1.69-11.069-1.926-16.566"/>
		<path fill-rule="evenodd" clip-rule="evenodd" fill="none" stroke="#000000" stroke-width="2.0945" stroke-linecap="round" d="    M1.156,252.362c-0.815-5.113,0.018-10.291,0.257-15.411"/>
		<path fill-rule="evenodd" clip-rule="evenodd" fill="none" stroke="#000000" stroke-width="2.7782" stroke-linecap="round" d="    M93.618,98c1.86,0.535,3.53,1.528,5.394,2.055"/>
		<path fill-rule="evenodd" clip-rule="evenodd" fill="none" stroke="#000000" stroke-width="2.3604" stroke-linecap="round" d="    M105.433,97.487c-1.813-2.495-3.477-5.116-5.137-7.705"/>
		<path fill-rule="evenodd" clip-rule="evenodd" fill="none" stroke="#000000" stroke-width="3.4932" stroke-linecap="round" d="    M96.957,72.06c-1.672-9.572-6.327-19.826-1.541-29.28"/>
		<path fill-rule="evenodd" clip-rule="evenodd" fill="none" stroke="#000000" stroke-width="2.7286" stroke-linecap="round" d="    M186.081,87.213c7.377,2.084,13.593,6.493,20.804,8.99"/>
		<path fill-rule="evenodd" clip-rule="evenodd" fill="none" stroke="#000000" stroke-width="3.4908" stroke-linecap="round" d="    M273.303,152.81c2.467,3.94,10.055,9.637,17.455,15.912c9.658,8.19,15.704,20.128,25.119,22.713    c8.384,2.302,18.475-3.24,27.433-2.085"/>
		<path fill-rule="evenodd" clip-rule="evenodd" fill="none" stroke="#000000" stroke-width="2.5061" stroke-linecap="round" d="    M343.31,189.35c5.33-6.304,13.771-10.281,16.395-18.664"/>
		<path fill-rule="evenodd" clip-rule="evenodd" fill="none" stroke="#000000" stroke-width="2.6968" stroke-linecap="round" d="    M362.273,163.751c0.48-0.84,1.222-1.635,2.184-2.697"/>
		<path fill-rule="evenodd" clip-rule="evenodd" fill="none" stroke="#000000" stroke-width="2.9612" stroke-linecap="round" d="    M364.457,161.055c-2.498-1.863-1.814-6.646,1.155-7.577"/>
		<path fill-rule="evenodd" clip-rule="evenodd" fill="none" stroke="#000000" stroke-width="2.8085" stroke-linecap="round" d="    M376.399,152.708c1.356,0.453,2.979,0.317,4.109,1.284"/>
		<path fill-rule="evenodd" clip-rule="evenodd" fill="none" stroke="#000000" stroke-width="2.6066" stroke-linecap="round" d="    M380.508,153.992c2.77-0.029,5.4,0.673,8.026,1.477"/>
		<path fill-rule="evenodd" clip-rule="evenodd" fill="none" stroke="#000000" stroke-width="2.7677" stroke-linecap="round" d="    M388.535,155.468c1.041-7.755,12.542-13.082,14.814-3.285c-0.492,2.057-1.334,4.191-0.906,6.329"/>
		<path fill-rule="evenodd" clip-rule="evenodd" fill="none" stroke="#000000" stroke-width="2.4366" stroke-linecap="round" d="    M402.443,158.512c6.146,0.684,10.32,6.083,8.63,12.174"/>
		<path fill-rule="evenodd" clip-rule="evenodd" fill="none" stroke="#000000" stroke-width="1.8342" stroke-linecap="round" d="    M413,178.392c0.173-1.583,0.069-3.167-0.643-4.624"/>
		<path fill-rule="evenodd" clip-rule="evenodd" fill="none" stroke="#000000" stroke-width="2.6532" stroke-linecap="round" d="    M407.991,195.728c0.472-1.174,0.973-2.336,1.541-3.468"/>
		<path fill-rule="evenodd" clip-rule="evenodd" fill="none" stroke="#000000" stroke-width="2.0386" stroke-linecap="round" d="    M405.679,212.294c1.408,1.732,1.686,4.002,1.541,6.164"/>
		<path fill-rule="evenodd" clip-rule="evenodd" fill="none" stroke="#000000" stroke-width="2.4366" stroke-linecap="round" d="    M131.374,13.243c0.514,0.171,1.027,0.342,1.541,0.514"/>
		<path fill-rule="evenodd" clip-rule="evenodd" fill="none" stroke="#000000" stroke-width="0.9947" stroke-linecap="round" d="    M119.431,44.706c0.523,0.248,1.071,0.47,1.541,0.771"/>
		<path fill-rule="evenodd" clip-rule="evenodd" fill="none" stroke="#000000" stroke-width="2.5787" stroke-linecap="round" d="    M112.111,109.558c1.481,0.718,3.095,1.021,4.623,1.605"/>
		<path fill-rule="evenodd" clip-rule="evenodd" fill="none" stroke="#000000" stroke-width="2.1944" stroke-linecap="round" d="    M116.734,111.164c1.598-0.672,3.294-0.938,4.623-2.119"/>
		<path fill-rule="evenodd" clip-rule="evenodd" fill="none" stroke="#000000" stroke-width="2.069" stroke-linecap="round" d="    M137.538,105.192c5.321-2.554,11.346-5.893,15.411-10.017"/>
		<path fill-rule="evenodd" clip-rule="evenodd" fill="none" stroke="#000000" stroke-width="2.3348" stroke-linecap="round" d="    M138.309,108.017c1.696,1,1.528,3.182,1.541,4.88"/>
		<path fill-rule="evenodd" clip-rule="evenodd" fill="none" stroke="#000000" stroke-width="2.5443" stroke-linecap="round" d="    M116.734,111.164c-0.438,12.182,9.355,21.076,21.382,17.529"/>
		<path fill-rule="evenodd" clip-rule="evenodd" fill="none" stroke="#000000" stroke-width="2.0952" stroke-linecap="round" d="    M138.116,128.693c4.711-1.098,9.929-2.895,12.521-7.32"/>
		<path fill-rule="evenodd" clip-rule="evenodd" fill="none" stroke="#000000" stroke-width="2.7192" stroke-linecap="round" d="    M150.637,121.373c0.562-1.837,1.179-3.645,1.431-5.559"/>
		<path fill-rule="evenodd" clip-rule="evenodd" fill="none" stroke="#000000" stroke-width="2.3941" stroke-linecap="round" d="    M152.068,115.814c-1.353-3.308-0.35-7.112-0.661-10.622"/>
		<path fill-rule="evenodd" clip-rule="evenodd" fill="none" stroke="#000000" stroke-width="2.7643" stroke-linecap="round" d="    M152.068,115.814c5.425-8.555,16.119-17.804,14.493-29.115"/>
		<path fill-rule="evenodd" clip-rule="evenodd" fill="none" stroke="#000000" stroke-width="2.8027" stroke-linecap="round" d="    M172.725,76.683c0.094-9.427,11.018-16.378,5.65-26.198"/>
		<path fill-rule="evenodd" clip-rule="evenodd" fill="none" stroke="#000000" stroke-width="0.9947" stroke-linecap="round" d="    M118.275,48.173c0.514,0.421,1.027,0.602,1.541,0.771"/>
		<path fill-rule="evenodd" clip-rule="evenodd" fill="none" stroke="#000000" stroke-width="1.8874" stroke-linecap="round" d="    M102.094,81.306c1.871,0.907,2.057,3.949,4.624,3.853"/>
		<path fill-rule="evenodd" clip-rule="evenodd" fill="none" stroke="#000000" stroke-width="2.7592" stroke-linecap="round" d="    M112.661,98.917c-0.162-5.076,0.138-10.241-0.037-15.3"/>
		<path fill-rule="evenodd" clip-rule="evenodd" fill="none" stroke="#000000" stroke-width="2.0142" stroke-linecap="round" d="    M150.637,121.373c1.165,0.438,2.505,1.762,2.89,2.312"/>
		<path fill-rule="evenodd" clip-rule="evenodd" fill="none" stroke="#000000" stroke-width="2.1874" stroke-linecap="round" d="    M153.526,123.685c2.366-0.063,4.429-1.312,6.715-1.604c0.695,0.394,1.163,1.442,1.953,2.374"/>
		<path fill-rule="evenodd" clip-rule="evenodd" fill="none" stroke="#000000" stroke-width="2.3838" stroke-linecap="round" d="    M162.194,124.455c1.027,0.041,2.055-0.044,3.083-0.257"/>
		<path fill-rule="evenodd" clip-rule="evenodd" fill="none" stroke="#000000" stroke-width="2.3791" stroke-linecap="round" d="    M167.075,135.242c-0.372-2.265-0.426-4.672,0-6.935"/>
		<path fill-rule="evenodd" clip-rule="evenodd" fill="none" stroke="#000000" stroke-width="1.6881" stroke-linecap="round" d="    M152.82,127.666c-1.209,1.223-1.904,1.591-2.44,1.926"/>
		<path fill-rule="evenodd" clip-rule="evenodd" fill="none" stroke="#000000" stroke-width="1.5602" stroke-linecap="round" d="    M138.116,128.693c1.455,1.811,1.816,4.401,0.963,6.549"/>
		<path fill-rule="evenodd" clip-rule="evenodd" fill="none" stroke="#000000" stroke-width="2.613" stroke-linecap="round" d="    M135.997,138.067c-0.534,0.195-1.102,0.496-1.695,0.874"/>
		<path fill-rule="evenodd" clip-rule="evenodd" fill="none" stroke="#000000" stroke-width="2.4702" stroke-linecap="round" d="    M119.816,141.406c-0.428-2.657,1.015-5.068,0.771-7.705"/>
		<path fill-rule="evenodd" clip-rule="evenodd" fill="none" stroke="#000000" stroke-width="2.2243" stroke-linecap="round" d="    M149.096,272.652c1.667-0.897,2.612-2.794,4.431-3.531"/>
		<path fill-rule="evenodd" clip-rule="evenodd" fill="none" stroke="#000000" stroke-width="2.5208" stroke-linecap="round" d="    M153.526,269.121c18.056-28.13,33.669-59.352,38.205-93.041"/>
		<path fill-rule="evenodd" clip-rule="evenodd" fill="none" stroke="#000000" stroke-width="3.157" stroke-linecap="round" d="    M187.108,132.931c-2.131-8.512-4.306-16.924-6.678-25.427"/>
		<path fill-rule="evenodd" clip-rule="evenodd" fill="none" stroke="#000000" stroke-width="2.4366" stroke-linecap="round" d="    M175.037,82.847c0.171,0.514,0.342,1.027,0.514,1.541"/>
		<path fill-rule="evenodd" clip-rule="evenodd" fill="none" stroke="#000000" stroke-width="2.3371" stroke-linecap="round" d="    M180.173,83.617c-0.652-1.044-1.518-2.036-2.018-2.972"/>
		<path fill-rule="evenodd" clip-rule="evenodd" fill="none" stroke="#000000" stroke-width="2.4327" stroke-linecap="round" d="    M194.385,222.354c0.79,4.986-0.659,9.681-0.856,14.597"/>
		<path fill-rule="evenodd" clip-rule="evenodd" fill="none" stroke="#000000" stroke-width="2.3635" stroke-linecap="round" d="    M238.476,146.029c-0.101-3.412,0.998-6.586,1.027-10.017"/>
		<path fill-rule="evenodd" clip-rule="evenodd" fill="none" stroke="#000000" stroke-width="2.3704" stroke-linecap="round" d="    M126.75,108.788c3.894,0.886,7.673-0.713,11.558-0.771"/>
		<path fill-rule="evenodd" clip-rule="evenodd" fill="none" stroke="#000000" stroke-width="1.8476" stroke-linecap="round" d="    M138.309,108.017c-0.161-0.796-0.404-1.833-0.771-2.825"/>
		<path fill-rule="evenodd" clip-rule="evenodd" fill="none" stroke="#000000" stroke-width="2.3874" stroke-linecap="round" d="    M137.538,105.192c-0.771,0.015-1.541-0.117-2.312-0.257"/>
		<path fill-rule="evenodd" clip-rule="evenodd" fill="none" stroke="#000000" stroke-width="3.0579" stroke-linecap="round" d="    M153.526,123.685c-0.427,1.281-1.29,2.598-0.707,3.981"/>
		<path fill-rule="evenodd" clip-rule="evenodd" fill="none" stroke="#000000" stroke-width="2.2703" stroke-linecap="round" d="    M152.82,127.666c3.306,0.037,6.619-1.525,9.375-3.21"/>
		<path fill-rule="evenodd" clip-rule="evenodd" fill="none" stroke="#000000" stroke-width="2.9001" stroke-linecap="round" d="    M53.551,190.206c5.259-1.619,10.75-1.702,16.181-1.027"/>
		<path fill-rule="evenodd" clip-rule="evenodd" fill="none" stroke="#000000" stroke-width="2.1102" stroke-linecap="round" d="    M73.695,190.5c0.865,0.676,1.841,1.611,2.458,2.532"/>
		<path fill-rule="evenodd" clip-rule="evenodd" fill="none" stroke="#000000" stroke-width="3.1406" stroke-linecap="round" d="    M77.017,213.345c4.634,1.884,9.775,0.377,14.586,1.142"/>
		<path fill-rule="evenodd" clip-rule="evenodd" fill="none" stroke="#000000" stroke-width="2.5275" stroke-linecap="round" d="    M91.603,214.487c2.83-15.035,2.582-31.011,3.213-45.527c0.422-9.706,5.038-26.492-9.673-24.548c-0.257-0.06-0.514-0.12-0.771-0.18    "/>
		<path fill-rule="evenodd" clip-rule="evenodd" fill="none" stroke="#000000" stroke-width="2.4162" stroke-linecap="round" d="    M388.535,155.468c0.599,1.725-0.456,3.869,0.81,5.355"/>
		<path fill-rule="evenodd" clip-rule="evenodd" fill="none" stroke="#000000" stroke-width="2.3874" stroke-linecap="round" d="    M386.929,189.949c0.191-1.027,0.266-2.055,0.514-3.082"/>
		<path fill-rule="evenodd" clip-rule="evenodd" fill="none" stroke="#000000" stroke-width="1.8413" stroke-linecap="round" d="    M397.974,189.178c2.707-5.844,7.168-10.602,11.558-15.41"/>
		<path fill-rule="evenodd" clip-rule="evenodd" fill="none" stroke="#000000" stroke-width="2.5389" stroke-linecap="round" d="    M402.443,158.512c-1.321,0.991-1.281,3.016-2.928,3.698"/>
		<path fill-rule="evenodd" clip-rule="evenodd" fill="none" stroke="#000000" stroke-width="1.3712" stroke-linecap="round" d="    M380.508,153.992c-0.875,1.054-1.231,2.378-1.798,3.596"/>
		<path fill-rule="evenodd" clip-rule="evenodd" fill="none" stroke="#000000" stroke-width="2.7402" stroke-linecap="round" d="    M360.604,222.119c0.869,3.749,5.33,2.647,8.09,3.531"/>
		<path fill-rule="evenodd" clip-rule="evenodd" fill="none" stroke="#000000" stroke-width="2.2428" stroke-linecap="round" d="    M397.204,217.431c-3.714,0.034-6.966,2.247-10.703,2.316c-0.982-0.382-1.624-1.666-1.931-2.206    c0.331-8.521,10.453-10.047,13.661-16.805"/>
		
			<line fill-rule="evenodd" clip-rule="evenodd" fill="none" stroke="#000000" stroke-width="4.6231" stroke-linecap="round" x1="364.457" y1="161.055" x2="364.457" y2="161.055"/>
		<path fill-rule="evenodd" clip-rule="evenodd" fill="none" stroke="#000000" stroke-width="2.0386" stroke-linecap="round" d="    M364.457,161.055c2.146-1.887,1.776-5.144,3.853-7.127"/>
		<path fill-rule="evenodd" clip-rule="evenodd" fill="none" stroke="#000000" stroke-width="2.079" stroke-linecap="round" d="    M371.776,165.292c0.452-3.917,1.563-7.77,1.541-11.75"/>
		<path fill-rule="evenodd" clip-rule="evenodd" fill="none" stroke="#000000" stroke-width="2.1412" stroke-linecap="round" d="    M368.309,153.927c1.684,2.703,1.375,6.997-0.716,9.384"/>
		<path fill-rule="evenodd" clip-rule="evenodd" fill="none" stroke="#000000" stroke-width="3.6819" stroke-linecap="round" d="    M367.593,163.311c0.617,1.355,0.681,3.047,2.105,3.891"/>
		<path fill-rule="evenodd" clip-rule="evenodd" fill="none" stroke="#000000" stroke-width="3.4025" stroke-linecap="round" d="    M364.457,161.055c1.021,0.785,2.067,1.54,3.137,2.256"/>
		<path fill-rule="evenodd" clip-rule="evenodd" fill="none" stroke="#000000" stroke-width="2.3956" stroke-linecap="round" d="    M240.531,167.604c0.165-0.771,0.313-1.541,0.514-2.312"/>
		<path fill-rule="evenodd" clip-rule="evenodd" fill="none" stroke="#000000" stroke-width="1.8874" stroke-linecap="round" d="    M357.136,223.082c0.967-0.256,2.12-0.431,3.468-0.963"/>
		<path fill-rule="evenodd" clip-rule="evenodd" fill="none" stroke="#000000" stroke-width="2.2868" stroke-linecap="round" d="    M360.604,222.119c0.866-7.133,2.292-14.285,3.467-21.382"/>
		<path fill-rule="evenodd" clip-rule="evenodd" fill="none" stroke="#000000" stroke-width="2.3276" stroke-linecap="round" d="    M361.502,192.26c0.203-1.688,1.504-2.98,1.798-4.623"/>
		<path fill-rule="evenodd" clip-rule="evenodd" fill="none" stroke="#000000" stroke-width="2.3838" stroke-linecap="round" d="    M368.437,176.85c0.258-1.284,0.195-2.568,0.514-3.853"/>
		<path fill-rule="evenodd" clip-rule="evenodd" fill="none" stroke="#000000" stroke-width="3.2291" stroke-linecap="round" d="    M343.31,189.35c-1.08,16.958-1.503,35.537,8.895,50.221"/>
		<path fill-rule="evenodd" clip-rule="evenodd" fill="none" stroke="#000000" stroke-width="3.2162" stroke-linecap="round" d="    M352.205,239.571c1.329,0.91,2.33,2.342,3.809,3.006c3.751-1.785,3.391-6.641,4.573-10.015"/>
		<path fill-rule="evenodd" clip-rule="evenodd" fill="none" stroke="#000000" stroke-width="2.827" stroke-linecap="round" d="    M360.586,232.562c-1.498-2.519-5.178-2.14-7.303-4.087"/>
		<path fill-rule="evenodd" clip-rule="evenodd" fill="none" stroke="#000000" stroke-width="2.9731" stroke-linecap="round" d="    M360.586,232.562c2.311-0.188,4.406,0.941,6.566,1.563"/>
		<path fill-rule="evenodd" clip-rule="evenodd" fill="none" stroke="#000000" stroke-width="1.9437" stroke-linecap="round" d="    M377.169,233.098c1.052-1.479,3.047-2.106,4.623-3.082"/>
		<path fill-rule="evenodd" clip-rule="evenodd" fill="none" stroke="#000000" stroke-width="1.9201" stroke-linecap="round" d="    M153.526,269.121c0.2,0.124,0.399,0.249,0.599,0.374c0.638,0.385,0.997,0.512,1.342,0.626    c16.433-12.645,25.854-32.624,38.918-47.767"/>
		<path fill-rule="evenodd" clip-rule="evenodd" fill="none" stroke="#000000" stroke-width="2.5963" stroke-linecap="round" d="    M194.385,222.354c3.071-14.921,1.946-31.066,0.685-46.274"/>
		<path fill-rule="evenodd" clip-rule="evenodd" fill="none" stroke="#000000" stroke-width="2.2541" stroke-linecap="round" d="    M147.94,273.166c-16.812-28.197-30.699-57.68-39.682-89.38"/>
		<path fill-rule="evenodd" clip-rule="evenodd" fill="none" stroke="#000000" stroke-width="1.6581" stroke-linecap="round" d="    M116.134,240.076c10.28,9.427,16.342,23.972,28.228,32.539"/>
		<path fill-rule="evenodd" clip-rule="evenodd" fill="none" stroke="#000000" stroke-width="2.3749" stroke-linecap="round" d="    M364.071,198.425c1.883-3.082,1.426-6.696,2.568-10.018"/>
		<path fill-rule="evenodd" clip-rule="evenodd" fill="none" stroke="#000000" stroke-width="1.9069" stroke-linecap="round" d="    M399.258,216.917c1.873-1.855,3.914-3.685,6.421-4.623"/>
		<path fill-rule="evenodd" clip-rule="evenodd" fill="none" stroke="#000000" stroke-width="2.662" stroke-linecap="round" d="    M405.679,212.294c1.425-5.334,4.047-11.025,2.312-16.566"/>
		<path fill-rule="evenodd" clip-rule="evenodd" fill="none" stroke="#000000" stroke-width="2.09" stroke-linecap="round" d="    M407.991,195.728c-2.525,0.481-4.231,2.857-6.935,2.954"/>
		<path fill-rule="evenodd" clip-rule="evenodd" fill="none" stroke="#000000" stroke-width="2.0925" stroke-linecap="round" d="    M294.724,207.671c0.181-1.284,0.58-2.568,1.027-3.853"/>
		<path fill-rule="evenodd" clip-rule="evenodd" fill="none" stroke="#000000" stroke-width="2.3749" stroke-linecap="round" d="    M21.96,227.705c0.031-0.514,0.142-1.027,0.257-1.541"/>
		<path fill-rule="evenodd" clip-rule="evenodd" fill="none" stroke="#000000" stroke-width="2.0257" stroke-linecap="round" d="    M29.28,243.5c0.528-0.176,1.17-0.463,1.896-0.829c1.164-4.321,1.044-8.986,1.828-13.426"/>
		<path fill-rule="evenodd" clip-rule="evenodd" fill="none" stroke="#000000" stroke-width="1.8761" stroke-linecap="round" d="    M85.143,291.658c1.397-2.542,1.337-5.868,3.853-7.705"/>
		<path fill-rule="evenodd" clip-rule="evenodd" fill="none" stroke="#000000" stroke-width="1.8826" stroke-linecap="round" d="    M75.125,325.561c1.781-4.99,1.395-10.807,3.853-15.41"/>
		<path fill-rule="evenodd" clip-rule="evenodd" fill="none" stroke="#000000" stroke-width="2.3749" stroke-linecap="round" d="    M82.831,290.887c0.015-0.771-0.118-1.541-0.257-2.312"/>
	</g>
</g>
<metadata><rdf:RDF><cc:Work><dc:format>image/svg+xml</dc:format><dc:type rdf:resource="http://purl.org/dc/dcmitype/StillImage"/><cc:license rdf:resource="http://creativecommons.org/licenses/publicdomain/"/><dc:publisher><cc:Agent rdf:about="http://openclipart.org/"><dc:title>Open Clip Art Library</dc:title></cc:Agent></dc:publisher><dc:title>card trick</dc:title><dc:date>2006-11-04T20:15:34</dc:date><dc:description>a magician doing a card trick</dc:description><dc:source>http://openclipart.org/detail/1259/card-trick-by-johnny_automatic</dc:source><dc:creator><cc:Agent><dc:title>johnny_automatic</dc:title></cc:Agent></dc:creator><dc:subject><rdf:Bag><rdf:li>card trick</rdf:li><rdf:li>card trick</rdf:li><rdf:li>cards</rdf:li><rdf:li>cards</rdf:li><rdf:li>clip art</rdf:li><rdf:li>clipart</rdf:li><rdf:li>entertainment</rdf:li><rdf:li>entertainment</rdf:li><rdf:li>externalsource</rdf:li><rdf:li>image</rdf:li><rdf:li>magic</rdf:li><rdf:li>magic</rdf:li><rdf:li>magician</rdf:li><rdf:li>magician</rdf:li><rdf:li>man</rdf:li><rdf:li>man</rdf:li><rdf:li>media</rdf:li><rdf:li>occupation</rdf:li><rdf:li>occupation</rdf:li><rdf:li>png</rdf:li><rdf:li>public domain</rdf:li><rdf:li>svg</rdf:li></rdf:Bag></dc:subject></cc:Work><cc:License rdf:about="http://creativecommons.org/licenses/publicdomain/"><cc:permits rdf:resource="http://creativecommons.org/ns#Reproduction"/><cc:permits rdf:resource="http://creativecommons.org/ns#Distribution"/><cc:permits rdf:resource="http://creativecommons.org/ns#DerivativeWorks"/></cc:License></rdf:RDF></metadata></svg>
