<?xml version="1.0" encoding="UTF-8" standalone="no"?>
<!-- Created with Inkscape (http://www.inkscape.org/) -->
<svg xmlns:dc="http://purl.org/dc/elements/1.1/" xmlns:cc="http://creativecommons.org/ns#" xmlns:rdf="http://www.w3.org/1999/02/22-rdf-syntax-ns#" xmlns:svg="http://www.w3.org/2000/svg" xmlns="http://www.w3.org/2000/svg" xmlns:xlink="http://www.w3.org/1999/xlink" xmlns:sodipodi="http://sodipodi.sourceforge.net/DTD/sodipodi-0.dtd" xmlns:inkscape="http://www.inkscape.org/namespaces/inkscape" width="167.30933" height="87.570885" id="svg5693" version="1.1" inkscape:version="0.48.0 r9654" sodipodi:docname="ticket_2.svg">
  <defs id="defs3">
    <linearGradient inkscape:collect="always" id="linearGradient6408">
      <stop style="stop-color:#000000;stop-opacity:1;" offset="0" id="stop6410"/>
      <stop style="stop-color:#000000;stop-opacity:0;" offset="1" id="stop6412"/>
    </linearGradient>
    <filter color-interpolation-filters="sRGB" inkscape:collect="always" id="filter5631">
      <feGaussianBlur inkscape:collect="always" stdDeviation="0.91741141" id="feGaussianBlur5633"/>
    </filter>
    <filter color-interpolation-filters="sRGB" inkscape:collect="always" id="filter5639">
      <feGaussianBlur inkscape:collect="always" stdDeviation="0.97828876" id="feGaussianBlur5641"/>
    </filter>
    <linearGradient inkscape:collect="always" xlink:href="#linearGradient6408" id="linearGradient6414" x1="343.09534" y1="541.89764" x2="343.59534" y2="562.39764" gradientUnits="userSpaceOnUse"/>
    <linearGradient inkscape:collect="always" xlink:href="#linearGradient5312" id="linearGradient5318" x1="160" y1="276.36218" x2="246.5" y2="202.36218" gradientUnits="userSpaceOnUse" gradientTransform="translate(5.0138458,-42.355334)"/>
    <linearGradient inkscape:collect="always" id="linearGradient5312">
      <stop style="stop-color:#ffffff;stop-opacity:1;" offset="0" id="stop5314"/>
      <stop style="stop-color:#ffffff;stop-opacity:0;" offset="1" id="stop5316"/>
    </linearGradient>
    <linearGradient y2="288.27567" x2="119.22078" y1="225.80405" x1="194.29468" gradientTransform="translate(179.88896,286.29335)" gradientUnits="userSpaceOnUse" id="linearGradient6431" xlink:href="#linearGradient5312" inkscape:collect="always"/>
  </defs>
  <sodipodi:namedview inkscape:document-units="mm" id="base" pagecolor="#ffffff" bordercolor="#666666" borderopacity="1.0" inkscape:pageopacity="0.0" inkscape:pageshadow="2" inkscape:zoom="1.4142136" inkscape:cx="138.8546" inkscape:cy="170.02765" inkscape:current-layer="layer1" showgrid="false" fit-margin-top="0" fit-margin-left="0" fit-margin-right="0" fit-margin-bottom="0" inkscape:window-width="1280" inkscape:window-height="949" inkscape:window-x="0" inkscape:window-y="24" inkscape:window-maximized="1"/>
  <g inkscape:label="Layer 1" inkscape:groupmode="layer" id="layer1" transform="translate(-266.34533,-488.57674)">
    <path id="path5635" d="m 280.71297,490.92463 c 0.0688,0.47077 0.125,0.94753 0.125,1.4375 0,5.45699 -4.41801,9.875 -9.875,9.875 -0.12419,0 -0.25189,-0.0267 -0.375,-0.0312 l 0,1.21875 c 1.661,1.00119 2.78125,2.82745 2.78125,4.90625 0,2.0788 -1.12025,3.90506 -2.78125,4.90625 l 0,2.1875 c 1.661,1.00119 2.78125,2.82745 2.78125,4.90625 0,2.0788 -1.12025,3.90506 -2.78125,4.90625 l 0,2.1875 c 1.661,1.00119 2.78125,2.82745 2.78125,4.90625 0,2.0788 -1.12025,3.90506 -2.78125,4.90625 l 0,2.1875 c 1.661,1.00119 2.78125,2.82745 2.78125,4.90625 0,2.0788 -1.12025,3.90506 -2.78125,4.90625 l 0,2.1875 c 1.661,1.00119 2.78125,2.82745 2.78125,4.90625 0,2.0788 -1.12025,3.90506 -2.78125,4.90625 l 0,1.28125 c 0.12311,-0.005 0.25081,-0.0312 0.375,-0.0312 5.45699,0 9.875,4.41801 9.875,9.875 0,0.48997 -0.0562,0.96673 -0.125,1.4375 l 140.4375,0 c -0.0693,-0.47077 -0.0937,-0.94753 -0.0937,-1.4375 0,-5.45699 4.44926,-9.875 9.90625,-9.875 0.11745,0 0.2273,0.0272 0.34375,0.0312 l 0,-1.21875 c -1.7151,-0.98785 -2.875,-2.84934 -2.875,-4.96875 0,-2.11941 1.1599,-3.9809 2.875,-4.96875 l 0,-2.0625 c -1.7151,-0.98785 -2.875,-2.84934 -2.875,-4.96875 0,-2.11941 1.1599,-3.9809 2.875,-4.96875 l 0,-2.0625 c -1.7151,-0.98785 -2.875,-2.84934 -2.875,-4.96875 0,-2.11941 1.1599,-3.9809 2.875,-4.96875 l 0,-2.0625 c -1.7151,-0.98785 -2.875,-2.84934 -2.875,-4.96875 0,-2.11941 1.1599,-3.9809 2.875,-4.96875 l 0,-2.0625 c -1.7151,-0.98785 -2.875,-2.84934 -2.875,-4.96875 0,-2.11941 1.1599,-3.9809 2.875,-4.96875 l 0,-1.15625 c -0.11645,0.004 -0.2263,0.0312 -0.34375,0.0312 -5.45699,0 -9.90625,-4.41801 -9.90625,-9.875 0,-0.48997 0.0245,-0.96673 0.0937,-1.4375 l -140.4375,0 z" style="fill:#b1b1b1;fill-opacity:1;stroke:none;filter:url(#filter5639)" inkscape:connector-curvature="0"/>
    <path id="path5608" d="m 278.2381,488.80331 c 0.0688,0.47077 0.125,0.94753 0.125,1.4375 0,5.45699 -4.41801,9.875 -9.875,9.875 -0.12419,0 -0.25189,-0.0267 -0.375,-0.0312 l 0,1.21875 c 1.661,1.00119 2.78125,2.82745 2.78125,4.90625 0,2.0788 -1.12025,3.90506 -2.78125,4.90625 l 0,2.1875 c 1.661,1.00119 2.78125,2.82745 2.78125,4.90625 0,2.0788 -1.12025,3.90506 -2.78125,4.90625 l 0,2.1875 c 1.661,1.00119 2.78125,2.82745 2.78125,4.90625 0,2.0788 -1.12025,3.90506 -2.78125,4.90625 l 0,2.1875 c 1.661,1.00119 2.78125,2.82745 2.78125,4.90625 0,2.0788 -1.12025,3.90506 -2.78125,4.90625 l 0,2.1875 c 1.661,1.00119 2.78125,2.82745 2.78125,4.90625 0,2.0788 -1.12025,3.90506 -2.78125,4.90625 l 0,1.28125 c 0.12311,-0.005 0.25081,-0.0312 0.375,-0.0312 5.45699,0 9.875,4.41801 9.875,9.875 0,0.48997 -0.0562,0.96673 -0.125,1.4375 l 140.43749,0 c -0.0692,-0.47077 -0.0937,-0.94753 -0.0937,-1.4375 0,-5.45699 4.44926,-9.875 9.90625,-9.875 0.11745,0 0.2273,0.0272 0.34375,0.0312 l 0,-1.21875 c -1.7151,-0.98785 -2.875,-2.84934 -2.875,-4.96875 0,-2.11941 1.1599,-3.9809 2.875,-4.96875 l 0,-2.0625 c -1.7151,-0.98785 -2.875,-2.84934 -2.875,-4.96875 0,-2.11941 1.1599,-3.9809 2.875,-4.96875 l 0,-2.0625 c -1.7151,-0.98785 -2.875,-2.84934 -2.875,-4.96875 0,-2.11941 1.1599,-3.9809 2.875,-4.96875 l 0,-2.0625 c -1.7151,-0.98785 -2.875,-2.84934 -2.875,-4.96875 0,-2.11941 1.1599,-3.9809 2.875,-4.96875 l 0,-2.0625 c -1.7151,-0.98785 -2.875,-2.84934 -2.875,-4.96875 0,-2.11941 1.1599,-3.9809 2.875,-4.96875 l 0,-1.15625 c -0.11645,0.004 -0.2263,0.0312 -0.34375,0.0312 -5.45699,0 -9.90625,-4.41801 -9.90625,-9.875 0,-0.48997 0.0245,-0.96673 0.0937,-1.4375 l -140.43749,0 z" style="fill:#a40000;fill-opacity:1;stroke:none" inkscape:connector-curvature="0"/>
    <path inkscape:connector-curvature="0" style="fill:#cc0000;fill-opacity:1;stroke:none" d="m 276.47033,488.80331 c 0.0688,0.47077 0.125,0.94753 0.125,1.4375 0,5.45699 -4.41801,9.875 -9.875,9.875 -0.12419,0 -0.25189,-0.0267 -0.375,-0.0312 l 0,1.21875 c 1.66101,1.00119 2.78125,2.82745 2.78125,4.90625 0,2.0788 -1.12024,3.90506 -2.78125,4.90625 l 0,2.1875 c 1.66101,1.00119 2.78125,2.82745 2.78125,4.90625 0,2.0788 -1.12024,3.90506 -2.78125,4.90625 l 0,2.1875 c 1.66101,1.00119 2.78125,2.82745 2.78125,4.90625 0,2.0788 -1.12024,3.90506 -2.78125,4.90625 l 0,2.1875 c 1.66101,1.00119 2.78125,2.82745 2.78125,4.90625 0,2.0788 -1.12024,3.90506 -2.78125,4.90625 l 0,2.1875 c 1.66101,1.00119 2.78125,2.82745 2.78125,4.90625 0,2.0788 -1.12024,3.90506 -2.78125,4.90625 l 0,1.28125 c 0.12311,-0.005 0.25081,-0.0312 0.375,-0.0312 5.45699,0 9.875,4.41801 9.875,9.875 0,0.48997 -0.0562,0.96673 -0.125,1.4375 l 140.4375,0 c -0.0693,-0.47077 -0.0937,-0.94753 -0.0937,-1.4375 0,-5.45699 4.44926,-9.875 9.90625,-9.875 0.11745,0 0.2273,0.0272 0.34375,0.0312 l 0,-1.21875 c -1.7151,-0.98785 -2.875,-2.84934 -2.875,-4.96875 0,-2.11941 1.1599,-3.9809 2.875,-4.96875 l 0,-2.0625 c -1.7151,-0.98785 -2.875,-2.84934 -2.875,-4.96875 0,-2.11941 1.1599,-3.9809 2.875,-4.96875 l 0,-2.0625 c -1.7151,-0.98785 -2.875,-2.84934 -2.875,-4.96875 0,-2.11941 1.1599,-3.9809 2.875,-4.96875 l 0,-2.0625 c -1.7151,-0.98785 -2.875,-2.84934 -2.875,-4.96875 0,-2.11941 1.1599,-3.9809 2.875,-4.96875 l 0,-2.0625 c -1.7151,-0.98785 -2.875,-2.84934 -2.875,-4.96875 0,-2.11941 1.1599,-3.9809 2.875,-4.96875 l 0,-1.15625 c -0.11645,0.004 -0.2263,0.0312 -0.34375,0.0312 -5.45699,0 -9.90625,-4.41801 -9.90625,-9.875 0,-0.48997 0.0245,-0.96673 0.0937,-1.4375 l -140.4375,0 z" id="rect3008"/>
    <path style="opacity:0.44081636000000002;fill:#a40000;fill-opacity:1;stroke:none;filter:url(#filter5631)" d="m 407.68908,494.92831 c -2.28763,0.0383 -4.60645,1.97916 -5.1875,6.34375 -2.77798,6.34301 -9.62066,-1.89429 -11.15625,-0.875 -0.35437,0.23522 -0.42395,0.95315 -0.0937,2.46875 1.36952,1.7489 2.02307,2.96975 2.125,3.78125 -0.23576,-0.0511 -0.44711,-0.0659 -0.59375,0.0312 -0.24541,0.1629 -0.34657,0.58069 -0.28125,1.3125 -0.4845,0.17291 -1.17002,0.18414 -1.9375,0.15625 -0.79517,0.95221 -2.06006,1.90187 -2.9375,2.90625 0.7618,0.78352 1.10872,1.96627 1.28125,3.4375 4.74341,-0.56071 4.9617,3.46274 4.9375,8.40625 -1.97819,0.97672 -4.20894,0.30992 -5.21875,-1.5625 1.97676,-1.75841 3.95309,-3.40685 0.375,-5.8125 0.058,0.95375 0.0987,1.95758 0.0937,3.03125 -2.21971,1.09595 -4.7916,0.1079 -5.5625,-2.3125 0.0476,-0.97057 -0.0541,-1.72913 -0.25,-2.34375 -0.12496,0.034 -0.26489,0.0791 -0.375,0.125 -0.43456,2.30335 1.34829,5.40144 2.84375,8.28125 -0.55519,0.87427 -1.80917,1.40705 -4.15625,1.5 2.66887,2.02741 4.48839,5.0847 6.375,7.8125 1.02736,1.14045 0.80524,2.53421 -0.0937,3.1875 -0.002,0.004 -0.0295,-0.004 -0.0312,0 -0.004,0.003 0.004,0.0283 0,0.0312 -0.20943,0.43461 -0.51914,0.90457 -0.90625,1.40625 -0.75022,2.42689 0.8021,4.69372 3.25,5.0625 0.61775,-0.87817 1.15892,-1.71536 1.65625,-2.53125 1.56208,4.01868 -0.99799,4.21754 -3.625,4.53125 -0.0253,0.22194 -0.0112,0.4418 0,0.65625 0.22888,0.21229 0.4671,0.43342 0.65625,0.6875 -0.13601,0.0625 -0.31202,0.17042 -0.46875,0.28125 0.44922,1.35939 1.63374,2.41747 3.21875,2.65625 2.84434,-4.04335 4.96331,-7.46877 0.75,-9.71875 0.699,-1.30602 1.0838,-2.4842 0.90625,-3.5625 1.59259,-0.3975 3.5867,-0.36494 4.8125,-0.96875 -1.72154,-2.47095 -3.78186,-3.21565 -5.34375,-2.71875 -0.60506,0.1925 -1.13449,0.57538 -1.53125,1.09375 -0.52586,-0.30612 -1.14419,-0.6123 -1.90625,-0.875 -0.0141,-5.95044 11.73176,0.0719 7.5625,-8.65625 -0.71686,-1.29808 -1.02336,-2.49242 -1.03125,-3.53125 0.47466,-0.38404 0.92261,-0.9311 1.28125,-1.75 0.0728,-0.54654 0.15822,-1.0598 0.28125,-1.53125 1.66548,-1.08903 4.31642,-0.55455 6.375,2.71875 2.87667,1.80696 3.54016,0.36358 3.65625,-1.59375 -0.26402,-0.43597 -0.45605,-0.92772 -0.53125,-1.46875 -0.62284,-0.60342 -1.05825,-1.40128 -1.15625,-2.34375 1.96835,-0.68739 3.90417,-1.29516 3.46875,-3.28125 -0.12673,-0.17855 -0.25633,-0.37043 -0.40625,-0.5625 -0.12585,-0.14367 -0.19991,-0.29451 -0.3125,-0.4375 0.14028,0.0212 0.2426,0.0381 0.375,0.0625 -0.20031,-0.41987 -0.46461,-0.88213 -0.84375,-1.40625 -0.0377,0.19143 -0.10075,0.37241 -0.0937,0.59375 -0.73467,-1.16796 -1.00585,-2.27192 -0.96875,-3.25 -0.11997,0.30026 -0.16945,0.61146 -0.15625,1 -1.67924,-2.6696 -1.08199,-5.09156 0.59375,-6.0625 1.34583,-0.77979 3.37482,-0.5802 5.46875,1.1875 -0.37083,-3.56045 -2.77066,-5.63426 -5.1875,-5.59375 z m -24.40625,18.96875 c -0.12348,-0.38736 -0.26572,-0.70001 -0.46875,-0.96875 0.15659,0.31994 0.30259,0.64578 0.46875,0.96875 z m -74.875,-18.21875 c -0.11994,-0.002 -0.25664,0.0131 -0.375,0.0312 -1.65705,0.25446 -3.12127,1.89966 -3.25,4.65625 1.68948,-2.6112 5.4815,0.0348 7.875,-0.125 -0.64982,-2.94057 -2.27287,-4.39535 -3.90625,-4.53125 -0.12063,-0.0101 -0.22381,-0.0292 -0.34375,-0.0312 z m 33,3.6875 c -0.0592,-0.009 -0.13099,0.0203 -0.1875,0.0312 -0.41727,0.0824 -0.75878,0.72298 -1.03125,2.25 0.56369,2.01088 0.69558,3.29178 0.53125,4.09375 1.33306,1.56155 2.48861,2.5459 4.34375,-0.125 0.19652,0.28202 0.36658,0.60646 0.53125,0.9375 3.28366,-1.09816 6.26189,1.64995 5.875,5.65625 2.32707,-2.38775 4.91368,-6.51153 7.375,-4.25 0.15687,0.74858 0.14359,1.70621 0,2.75 -2.11963,-0.96341 -4.506,-1.37526 -6.90625,1.5625 -0.216,0.26437 -0.40576,0.51362 -0.5625,0.75 -0.13117,0.63851 -0.34301,1.32049 -0.65625,2 0.0563,0.63486 0.43455,1.11258 1.03125,1.46875 0.26873,-0.27543 0.55135,-0.27133 0.875,0.21875 0.66162,-0.0591 1.37293,0.005 2.1875,0.1875 2.50178,0.56209 3.38151,1.5363 3.625,2.625 1.50957,-0.0959 2.71643,0.29268 3.0625,1.84375 -0.24777,0.58386 -0.64498,1.20494 -1.1875,1.84375 1.09123,-0.23947 2.22787,-0.65796 3.34375,-1.1875 -1.97046,-2.36113 -5.8735,-5.52686 -0.375,-7.09375 3.6484,-1.03965 5.37335,0.65452 6.5625,2.65625 0.71421,-0.7746 1.2637,-1.5459 1.5625,-2.25 -1.31376,-5.88813 -14.83396,5.08895 -11.46875,-5.0625 1.05141,-1.67992 1.50062,-3.32053 1.5,-4.75 -4.36984,1.62275 -3.29244,-2.03956 -4,-5.1875 -1.97706,-0.2476 -4.34258,0.90498 -6.21875,4.15625 -4.83006,4.65526 -7.97584,-4.8526 -9.8125,-5.125 z m 71.5,1.625 c -0.28254,0.17522 -0.59718,0.35563 -0.9375,0.5 0.30791,0.12363 0.61849,0.27893 0.9375,0.46875 0.0153,-0.33412 0.0166,-0.65519 0,-0.96875 z m -108.125,0.3125 c 0.0107,0.18168 0.0101,0.34143 0.0312,0.53125 0.29979,5.485 -2.32328,4.63951 -5.0625,3.875 -1.02845,1.86225 -0.39162,4.11468 1.5,5.25 4.52112,-2.87703 8.02061,-5.4063 3.53125,-9.65625 z m 24.53125,1.125 c -0.71917,1.10368 -0.87057,2.6947 -0.8125,4.46875 -1.48981,1.32881 -2.45014,2.94616 -1.4375,5.375 0.39208,0.12864 0.83259,0.27856 1.28125,0.4375 1.26513,-2.03851 2.64763,-3.95216 2.125,-5.6875 0.42235,-1.74622 0.99721,-1.89982 1.71875,-1.21875 0.64579,-0.55138 1.30026,-1.07414 1.96875,-1.40625 -1.7946,-1.03186 -3.58592,-1.97429 -4.84375,-1.96875 z m 94.15625,0.1875 c -0.41743,0.01 -0.85565,0.1558 -1.3125,0.34375 -0.68095,0.28014 -1.37506,0.68991 -2.09375,1.1875 1.55697,0.71166 3.19077,1.38485 4.9375,1.28125 0.18922,-0.65348 0.30699,-1.24722 0.3125,-1.78125 -0.51852,-0.74101 -1.14804,-1.04713 -1.84375,-1.03125 z m -10.4375,1.125 c -1.69873,0.71605 -3.92867,1.18483 -4.75,2.59375 1.52298,0.35865 2.45305,0.97872 2.96875,1.78125 0.0344,-0.75143 0.23434,-1.58722 0.6875,-2.59375 0.34675,-0.77019 0.71001,-1.33822 1.09375,-1.78125 z m -29.84375,3.71875 c -0.36874,0.008 -0.68891,0.07 -1,0.125 -0.46581,0.85007 -0.5465,1.78131 0.21875,2.875 0.77552,-0.2198 1.45602,-0.3258 2.0625,-0.375 0.0294,-0.65212 0.23841,-1.27756 0.625,-1.78125 0.19792,-0.25786 0.43605,-0.46298 0.71875,-0.65625 -0.92749,-0.10759 -1.84064,-0.20408 -2.625,-0.1875 z m -95.4375,0.5625 c -0.98065,-0.0107 -2.0315,0.45779 -3.1875,1.59375 -1.45383,1.42863 -1.56158,2.55058 -0.96875,3.5625 1.95971,-0.0215 3.71586,-0.68305 4.40625,-3.375 0.1754,-0.68391 0.24259,-1.24695 0.25,-1.71875 -0.17012,-0.029 -0.32669,-0.0606 -0.5,-0.0625 z m 125.0625,3.59375 c 0.26797,1.78285 -0.63323,4.12178 -1.71875,6.71875 -0.53804,0.0364 -1.02654,-0.0119 -1.5,-0.15625 0.45261,0.16449 1.1656,0.85772 2.3125,2.3125 0.19949,0.3115 0.40971,0.56757 0.625,0.8125 2.40652,-1.71944 5.12428,-4.09352 6.90625,-2.5625 -0.54082,-3.79564 -4.39462,-5.06152 -6.625,-7.125 z m -5.34375,4.9375 c 0.0475,0.73861 0.0205,1.51833 -0.125,2.375 0.17162,2.41565 0.72842,3.49196 1.53125,3.78125 0.11621,-2.10482 -0.38044,-4.75474 0.59375,-4.5625 -0.84197,-0.2862 -1.5375,-0.86088 -2,-1.59375 z m -102.5625,0.65625 c -0.98443,0.20064 -1.67438,1.45085 -0.3125,4.34375 3.87091,-2.09873 2.26606,-4.2278 0.75,-4.34375 -0.1474,-0.0113 -0.29687,-0.0287 -0.4375,0 z m 28.96875,1.53125 c -0.77563,0.0358 -0.78601,3.83537 -2.875,3.65625 -0.0875,0.19129 -0.17642,0.37257 -0.28125,0.53125 -0.089,-0.23661 -0.1983,-0.46114 -0.3125,-0.6875 -0.56697,-0.21143 -1.24663,-0.63947 -2.09375,-1.4375 -0.0224,-0.0211 -0.0406,-0.0414 -0.0625,-0.0625 -0.58004,0.54786 -1.15863,1.4217 -1.6875,2.90625 -0.60318,1.69312 -0.53177,2.74015 -0.125,3.4375 0.95075,-0.67691 2.36295,-1.06327 4.21875,-0.9375 -0.0926,0.41697 -0.29224,0.86665 -0.53125,1.3125 0.78468,-0.23906 1.71504,-0.35565 2.8125,-0.28125 -0.33884,1.52606 -1.96191,3.29953 -2.5,5 0.33108,0.0817 0.892,0.38395 1.625,0.8125 0.0962,-0.0155 0.18858,-0.0225 0.28125,-0.0312 -0.0167,-0.12118 -0.026,-0.24005 -0.0312,-0.375 -0.34755,-8.9053 6.74637,-2.69178 3.25,-11.0625 -0.87409,-2.09269 -1.34737,-2.79694 -1.6875,-2.78125 z m -52,6.125 c -0.89696,0 -1.63631,0.79661 -2.21875,3.59375 -0.71631,3.44004 -0.0271,3.74109 1.15625,3.34375 0.30614,-1.29484 1.62023,-2.30243 3,-3.40625 -0.51987,-1.036 -0.64731,-2.10475 -0.40625,-3.0625 -0.54912,-0.2535 -1.07369,-0.46875 -1.53125,-0.46875 z m 62,2.90625 c -2.05968,0.0662 -4.29624,4.33612 -1.125,3.5625 1.10623,-0.59246 2.43425,-2.29821 1.53125,-3.53125 -0.13416,-0.0356 -0.26894,-0.0358 -0.40625,-0.0312 z m -21.90625,2.09375 c 0.0254,0.55051 0.0444,1.10783 0.0937,1.65625 -0.34101,-0.13817 -0.72691,-0.31171 -1.15625,-0.5625 -0.20132,-0.1176 -0.36017,-0.25068 -0.53125,-0.375 -0.20087,0.16357 -0.40586,0.36636 -0.625,0.59375 -5.36991,5.57219 1.14783,11.31312 -6.15625,14.21875 -1.10425,0.43928 -1.88416,0.54854 -2.4375,0.4375 -0.12251,2.5741 -1.77909,6.19436 1.53125,7.15625 0.46646,-0.65739 0.93332,-1.17524 1.375,-1.59375 -0.38583,-0.52656 -0.57925,-1.14647 -0.59375,-1.78125 -0.0375,-1.6386 1.2383,-3.38682 4.09375,-4.34375 0.2346,1.34615 -0.33965,3.2349 -0.40625,4.875 1.08471,0.13295 2.0996,0.83684 3.15625,1.875 1.83704,-1.87324 3.47822,-1.79425 5.09375,-0.71875 0.0197,-0.26021 0.0494,-0.53537 0.0937,-0.8125 0.33776,-2.10958 1.19437,-2.73202 2.25,-2.6875 -0.17722,-1.3656 -0.0804,-2.85626 0.625,-4.59375 0.005,-0.0135 0.0258,-0.0179 0.0312,-0.0312 -0.63504,-0.40123 -1.2053,-1.20908 -1.625,-2.75 -0.41415,-1.52055 -0.44427,-2.59396 -0.28125,-3.375 0.03,0.005 0.0634,0.0263 0.0937,0.0312 3.90343,0.57963 4.07892,-1.00471 3.75,-2.53125 -0.50633,-0.21725 -0.9401,-0.46462 -1.3125,-0.75 -3.50515,4.20374 -4.03091,-4.08012 -7.0625,-3.9375 z m -32.5625,5.96875 c -1.05839,0.5874 -2.08755,1.15621 -3.125,1.34375 -2.26385,4.94935 -13.46192,1.84103 -9.5,8.90625 4.56761,8.14532 8.59547,-7.53088 13.84375,-0.0312 1.7229,2.46194 1.46825,4.65544 0.65625,6.65625 -0.003,0.0215 0.002,0.0408 0,0.0625 -0.0388,0.34594 -0.059,0.72199 -0.0625,1.125 -0.18057,0.0609 -0.36613,0.0941 -0.53125,0.125 -1.82307,3.49072 -4.53429,6.37596 0.25,9.03125 7.03516,3.90452 7.40412,-5.35306 13.125,-6.34375 0.12917,-1.28874 -0.0705,-2.15769 -0.5625,-2.71875 -3.1842,0.62497 -6.66191,1.4712 -8.75,0.40625 -0.0135,-0.11858 -0.003,-0.24553 0,-0.375 -0.35667,0.0686 -0.71143,0.096 -1.0625,0.15625 0.315,-0.1192 0.65604,-0.14625 1.0625,-0.15625 0.64491,-0.0151 1.39452,0.0875 2.3125,0.40625 2.53952,-0.0589 4.20853,-2.24912 3.78125,-4.6875 -1.02891,-0.30682 -2.00594,-0.53736 -2.9375,-0.75 3.31505,-2.75688 4.33742,-0.42284 5.46875,1.96875 0.89437,-0.19011 1.62871,-0.66669 2.15625,-1.3125 -0.72776,-0.90827 -0.63446,-1.68748 -0.1875,-2.15625 0.099,-0.10391 0.21632,-0.1751 0.34375,-0.25 0.2154,-0.12673 0.46202,-0.18656 0.71875,-0.21875 -0.007,-0.20339 -0.0259,-0.41642 -0.0625,-0.625 -4.73707,-1.41386 -8.64122,-2.33459 -9.4375,2.375 -1.46036,-0.2483 -2.69007,-0.22938 -3.65625,0.28125 -0.71699,-1.12454 -1.27868,-2.62533 -1.96875,-3.65625 0.24266,-0.72864 0.43585,-1.39267 0.40625,-1.90625 -0.72063,-0.14318 -1.1002,-0.34368 -1.1875,-0.625 -0.052,-0.16806 0.01,-0.38188 0.125,-0.59375 -0.8074,-0.13046 -2.15522,0.17775 -4.21875,1 -1.54728,-0.10948 -2.21772,-0.40627 -2.34375,-0.8125 -0.38495,-1.24071 4.3522,-3.71255 5.34375,-6.625 z m 126.4375,0.125 c -0.11994,-0.002 -0.22539,0.0131 -0.34375,0.0312 -1.65705,0.25446 -3.12127,1.89966 -3.25,4.65625 0.21119,-0.3264 0.4487,-0.57214 0.71875,-0.75 -0.58931,0.78149 -0.99813,1.84045 -1.0625,3.21875 0.12031,-0.18594 0.26589,-0.30196 0.40625,-0.4375 0.0117,0.64677 -0.0495,1.19722 -0.125,1.65625 -0.0947,-0.0957 -0.17822,-0.18372 -0.28125,-0.28125 0.0107,0.18168 0.0101,0.34143 0.0312,0.53125 0.0133,0.24329 -0.002,0.46856 0,0.6875 -0.77741,1.87877 -2.71057,1.27923 -4.71875,0.71875 -0.45808,0.82947 -0.57265,1.74266 -0.40625,2.59375 -0.93328,1.83705 -0.28702,4.01495 1.5625,5.125 3.39084,-2.15777 6.19779,-4.11083 5.5,-6.75 -0.002,-0.009 0.002,-0.0222 0,-0.0312 0.78472,-1.36006 0.66247,-2.86973 -0.96875,-4.6875 1.91133,-0.88783 4.88499,0.88286 6.875,0.75 -0.23735,-1.07406 -0.61239,-1.93925 -1.0625,-2.625 0.49508,0.10394 0.98008,0.1847 1.40625,0.15625 -0.64982,-2.94057 -2.27287,-4.39535 -3.90625,-4.53125 -0.12063,-0.01 -0.25506,-0.0292 -0.375,-0.0312 z m -111.65625,0.46875 c -4.6328,-0.0911 -1.59393,4.52689 -1.125,6.90625 0.95991,0.23331 2.12164,0.26916 3.46875,-0.0312 1.47283,-0.23841 2.47857,-0.221 3.1875,0 -0.27111,-2.60754 -0.0832,-6.32062 -4.8125,-6.8125 -0.26165,-0.0272 -0.4944,-0.0581 -0.71875,-0.0625 z m 34.28125,0.34375 c 0.41502,0.85967 0.78619,1.84293 1.125,2.9375 0.24107,-1.99978 -0.2669,-2.72122 -1.125,-2.9375 z m 35.25,2.28125 c -1.78713,1.183 -3.33527,2.69417 -4.84375,4.21875 1.03991,0.40188 1.97354,1.22553 2.5,2.28125 2.05793,2.7437 4.73488,-1.36549 4.0625,-3.5625 -0.41896,-1.00739 -1.08938,-1.9663 -1.71875,-2.9375 z m -33.71875,1 c -0.0999,0.032 -0.19371,0.065 -0.28125,0.125 0.0939,0.31257 0.18791,0.6148 0.28125,0.9375 -1.45766,1.34463 -3.48374,1.46276 -4.96875,0.375 0.17996,0.66978 0.54738,1.43566 1.1875,2.375 0.72741,0.35541 1.39219,0.45593 1.96875,-0.0937 0.0647,0.65476 0.35018,1.1275 0.9375,1.125 0.76432,-1.43172 3.82634,-2.96143 3.5625,-3.875 -0.9346,-0.20668 -1.72218,-0.86823 -2.6875,-0.96875 z m 90.875,0.75 c -0.32939,0.0441 -0.65876,0.11059 -0.96875,0.1875 0.056,0.0931 0.0942,0.1837 0.15625,0.28125 0.3239,-0.153 0.57319,-0.31331 0.8125,-0.46875 z m -52.9375,4.46875 c -1.07761,0.0415 -5.35151,0.3092 -3.03125,1.90625 2.55213,0.85096 0.18179,2.57054 -0.125,3.90625 0.28498,0.25202 0.58845,0.48663 0.90625,0.6875 0.76251,-0.15353 1.57947,0.11065 2.3125,1.0625 0.009,0.0128 0.0224,0.0187 0.0312,0.0312 0.88061,0.31029 1.7743,0.59151 2.65625,0.875 0.74774,-0.35376 1.26994,-1.19148 1.125,-2.34375 0.003,-0.86987 0.0217,-1.76442 0.0312,-2.65625 -2.06963,-0.0983 -1.41608,-3.71865 -3.90625,-3.46875 z m 18.9375,0.15625 c -0.1957,10e-4 -0.38177,0.0349 -0.5625,0.0937 -1.12453,0.36603 -1.73031,1.81786 0.96875,4.28125 2.43147,-2.98871 0.96366,-4.38391 -0.40625,-4.375 z m -46.90625,1.59375 c -0.28883,1.16032 -0.83578,2.6674 -0.71875,3.65625 -0.48059,0.33762 -1.01031,0.1254 -1.4375,-0.375 -0.71049,3.48505 -9.98917,-2.01029 -8.375,5.125 0.10344,0.45727 0.23065,0.88521 0.375,1.28125 1.65815,-0.997 2.86191,-3.29247 5,-2.625 2.44488,1.14538 3.18807,4.48194 1.8125,6.71875 -0.25203,0.61531 -0.60801,1.22296 -0.96875,1.84375 2.02384,1.2846 3.70585,2.62237 3.5,5.78125 0.75846,-0.0739 1.4737,-0.38789 2.03125,-1 1.70303,-1.64051 2.96428,-4.39372 5.71875,-4.28125 2.67379,-0.30369 4.77885,2.11295 3.6875,4.65625 0.25626,1.25534 0.69381,-1.90104 2,-0.9375 0.96979,0.29041 2.92863,0.73856 1.28125,-0.59375 -1.41712,-2.06115 -3.42907,-3.96121 -4.03125,-6.4375 1.01494,-0.92094 3.9521,-0.9997 2.34375,-3.15625 -0.21075,-0.56023 -0.20206,-0.91137 -0.0625,-1.09375 -0.8739,-0.54226 -1.90816,-0.8071 -2.96875,-0.625 -2.81265,0.88721 -1.31228,5.09646 -3.78125,6.375 -1.94224,0.58513 -5.18382,-1.41871 -3.84375,-3.59375 0.94423,-0.89879 1.71761,-1.93216 2.375,-3.03125 -0.63377,-0.44054 -1.25531,-0.93044 -1.59375,-1.15625 -1.62968,-1.34888 1.64235,-3.44496 -0.25,-5.1875 -0.59751,-0.75977 -1.31528,-1.16694 -2.09375,-1.34375 z m 16.125,0.21875 c -0.21132,0.97055 -0.25616,1.99974 -0.28125,3.03125 1.53884,0.0725 4.09382,0.20502 2.625,-1.34375 -0.47164,-0.6337 -1.46803,-1.13751 -2.34375,-1.6875 z m -9.875,1.15625 c -0.17414,0.0146 -0.34984,0.0528 -0.53125,0.0937 -1.88336,0.66552 -1.21398,2.19527 -0.53125,3.71875 0.21011,-0.52102 0.39573,-1.06256 0.5625,-1.59375 0.28681,-0.73356 0.68045,-1.48529 1.15625,-2.1875 -0.21499,-0.0228 -0.42718,-0.0504 -0.65625,-0.0312 z m 42.125,3.3125 c -0.1957,10e-4 -0.38177,0.0349 -0.5625,0.0937 -1.12453,0.36604 -1.73031,1.81786 0.96875,4.28125 2.43146,-2.98871 0.96366,-4.38391 -0.40625,-4.375 z m -76.5625,1.03125 c -0.23199,10e-4 -0.48151,0.0395 -0.75,0.0625 0.64304,0.70676 1.29982,1.44142 1.96875,2.28125 -0.36698,0.79041 -0.95905,1.405 -1.625,1.8125 2.10064,3.0243 2.45859,7.46351 6.53125,3.59375 0.36166,-0.34364 0.67096,-0.70437 0.9375,-1.03125 -0.41156,-0.6569 -0.91599,-1.31376 -1.40625,-2 -0.46416,0.2121 -0.95633,0.35756 -1.46875,0.375 -0.0622,-0.18158 -0.1033,-0.38315 -0.125,-0.53125 -0.29703,0.11004 -0.57565,0.27758 -0.84375,0.4375 -0.20894,-0.0496 -0.45039,-0.1008 -0.65625,-0.1875 0.41058,-2.4461 0.91739,-4.83055 -2.5625,-4.8125 z m -7.71875,1.46875 c -0.31992,0.0204 -0.65415,0.11498 -1,0.28125 -2.13135,0.70614 -4.38962,1.35885 -6.46875,2.3125 0.0543,0.0111 0.10117,0.0189 0.15625,0.0312 8.41441,1.8905 -1.39012,8.52413 7.21875,8.03125 0.21337,-0.0122 0.41033,-0.0425 0.59375,-0.0625 0.29058,-0.46825 0.86012,-0.96012 1.78125,-1.46875 0.0419,-0.0231 0.0836,-0.0405 0.125,-0.0625 -0.87115,-2.32154 -7.85542,-6.52394 -1.25,-8.40625 0.14117,-0.0402 0.27073,-0.0616 0.40625,-0.0937 -0.38623,-0.3685 -0.93946,-0.60229 -1.5625,-0.5625 z m 59.21875,2.1875 c -1.18832,1.6004 -0.90149,3.96178 -1.28125,5.875 -0.1456,1.10822 -0.82993,1.93719 -1.75,2.4375 0.407,0.0955 0.85858,-0.0432 1.40625,-0.65625 0.78511,-1.35958 2.57558,-1.62322 3.4375,-1.46875 -0.0689,-2.1657 -1.66631,-4.02559 -1.8125,-6.1875 z m 39.1875,1.09375 c -0.81356,0.12878 -1.47121,0.96782 -1,2.78125 -0.62462,0.51754 -0.82968,1.7378 0.25,4.03125 2.66125,-1.44288 2.7381,-2.87997 2.03125,-3.6875 1.53725,-1.62765 0.27785,-3.03205 -0.9375,-3.125 -0.12033,-0.009 -0.22753,-0.0184 -0.34375,0 z" id="path5483" inkscape:connector-curvature="0"/>
    <path style="opacity:0.71428576;fill:#ffffff;fill-opacity:1;stroke:none" d="m 276.83125,488.79364 c 0.0688,0.24251 0.125,0.4881 0.125,0.74049 0,0.12763 -0.0134,0.26109 -0.0312,0.38635 l 140.28124,0 c -0.0181,-0.12544 -0.0312,-0.25853 -0.0312,-0.38635 0,-0.25239 0.0246,-0.49798 0.0937,-0.74049 l -140.43749,0 z" id="path5612" inkscape:connector-curvature="0"/>
    <path inkscape:connector-curvature="0" id="path5619" d="m 276.83125,570.79364 c 0.0688,0.24251 0.125,0.4881 0.125,0.74049 0,0.12763 -0.0134,0.26109 -0.0312,0.38635 l 140.28124,0 c -0.0181,-0.12544 -0.0312,-0.25853 -0.0312,-0.38635 0,-0.25239 0.0246,-0.49798 0.0937,-0.74049 l -140.43749,0 z" style="opacity:0.71428575999999999;fill:#a40000;fill-opacity:1;stroke:none"/>
    <g id="g5828" transform="translate(2.1428571,77.142857)">
      <g style="opacity:0.56734691" transform="translate(183.3364,118.58902)" id="g5380">
        <path style="font-size:medium;font-style:normal;font-variant:normal;font-weight:normal;font-stretch:normal;text-indent:0;text-align:start;text-decoration:none;line-height:normal;letter-spacing:normal;word-spacing:normal;text-transform:none;direction:ltr;block-progression:tb;writing-mode:lr-tb;text-anchor:start;baseline-shift:baseline;opacity:0.8;color:#000000;fill:#000000;fill-opacity:1;stroke:none;stroke-width:0.80000001;marker:none;visibility:visible;display:inline;overflow:visible;enable-background:accumulate;font-family:'8-bit';-inkscape-font-specification:'8-bit'" d="m 101.875,302.59375 0,0.40625 0,63 0,0.40625 0.40625,0 0.40625,-0.8125 0,-62.1875 122.21875,0 0.8125,-0.40625 0,-0.40625 -0.40625,0 -123.03125,0 z" id="rect3033" inkscape:connector-curvature="0" sodipodi:nodetypes="ccccccccccccc"/>
        <path sodipodi:nodetypes="ccccccccccccc" inkscape:connector-curvature="0" id="path5378" d="m 225.71875,366.40625 0,-0.40625 0,-63 0,-0.40625 -0.40625,0 -0.40625,0.8125 0,62.1875 -122.21875,0 -0.8125,0.40625 0,0.40625 0.40625,0 123.03125,0 z" style="font-size:medium;font-style:normal;font-variant:normal;font-weight:normal;font-stretch:normal;text-indent:0;text-align:start;text-decoration:none;line-height:normal;letter-spacing:normal;word-spacing:normal;text-transform:none;direction:ltr;block-progression:tb;writing-mode:lr-tb;text-anchor:start;baseline-shift:baseline;opacity:0.8;color:#000000;fill:#ffffff;fill-opacity:1;stroke:none;stroke-width:0.80000001;marker:none;visibility:visible;display:inline;overflow:visible;enable-background:accumulate;font-family:'8-bit';-inkscape-font-specification:'8-bit'"/>
      </g>
      <g id="g5822" transform="matrix(-0.98994436,0,0,-0.98994436,509.28307,784.22541)" style="opacity:0.56734691">
        <path sodipodi:nodetypes="ccccccccccccc" inkscape:connector-curvature="0" id="path5824" d="m 101.875,302.59375 0,0.40625 0,63 0,0.40625 0.40625,0 0.40625,-0.8125 0,-62.1875 122.21875,0 0.8125,-0.40625 0,-0.40625 -0.40625,0 -123.03125,0 z" style="font-size:medium;font-style:normal;font-variant:normal;font-weight:normal;font-stretch:normal;text-indent:0;text-align:start;text-decoration:none;line-height:normal;letter-spacing:normal;word-spacing:normal;text-transform:none;direction:ltr;block-progression:tb;writing-mode:lr-tb;text-anchor:start;baseline-shift:baseline;opacity:0.8;color:#000000;fill:#000000;fill-opacity:1;stroke:none;stroke-width:0.80000001;marker:none;visibility:visible;display:inline;overflow:visible;enable-background:accumulate;font-family:'8-bit';-inkscape-font-specification:'8-bit'"/>
        <path style="font-size:medium;font-style:normal;font-variant:normal;font-weight:normal;font-stretch:normal;text-indent:0;text-align:start;text-decoration:none;line-height:normal;letter-spacing:normal;word-spacing:normal;text-transform:none;direction:ltr;block-progression:tb;writing-mode:lr-tb;text-anchor:start;baseline-shift:baseline;opacity:0.8;color:#000000;fill:#ffffff;fill-opacity:1;stroke:none;stroke-width:0.80000001;marker:none;visibility:visible;display:inline;overflow:visible;enable-background:accumulate;font-family:'8-bit';-inkscape-font-specification:'8-bit'" d="m 225.71875,366.40625 0,-0.40625 0,-63 0,-0.40625 -0.40625,0 -0.40625,0.8125 0,62.1875 -122.21875,0 -0.8125,0.40625 0,0.40625 0.40625,0 123.03125,0 z" id="path5826" inkscape:connector-curvature="0" sodipodi:nodetypes="ccccccccccccc"/>
      </g>
    </g>
    <path style="font-size:18px;font-style:normal;font-variant:normal;font-weight:bold;font-stretch:normal;text-align:start;line-height:125%;writing-mode:lr-tb;text-anchor:start;opacity:0.50000000000000000;fill:url(#linearGradient6414);fill-opacity:1;stroke:none;font-family:Univers;-inkscape-font-specification:Univers Bold" d="m 369.07973,541.61775 c -4.68,0 -6.21875,3.51275 -6.21875,6.96875 0,1.188 0.17175,3.363 1.59375,4.875 1.188,1.242 2.88375,1.78125 4.59375,1.78125 1.08,0 3.185,-0.255 4.625,-1.875 1.062,-1.188 1.65625,-3.20375 1.65625,-5.09375 0,-1.278 -0.27025,-3.291 -1.65625,-4.875 -1.278,-1.44 -3.20775,-1.78125 -4.59375,-1.78125 z m -26.90625,0.25 0,13.03125 2.8125,0 0,-13.03125 -2.8125,0 z m -39.28125,0.0312 -4.6875,13 2.65625,0 0.96875,-2.8125 5.15625,0 0.9375,2.8125 2.8125,0 -4.53125,-13 -3.3125,0 z m 22.3125,0 0,13 2.59375,0 0,-11.15625 3.5,11.15625 2.28125,0 3.5625,-11.15625 0,11.15625 2.78125,0 0,-13 -4.4375,0 -2.96875,9.46875 -2.75,-9.46875 -4.5625,0 z m 21.15625,0 0,2.15625 3.84375,0 0,10.84375 2.8125,0 0,-10.84375 3.875,0 0,-2.15625 -10.53125,0 z m 31.03125,0 0,13 2.625,0 0,-10.78125 5.03125,10.78125 3.84375,0 0,-13 -2.59375,0 0,10.25 -4.875,-10.25 -4.03125,0 z m 14,0 0,13 8.9375,0 0,-2.15625 -6.125,0 0,-3.5 5.53125,0 0,-2.125 -5.53125,0 0,-3.09375 5.90625,0 0,-2.125 -8.71875,0 z m -79.09375,0.0312 0,12.96875 4.03125,0 c 1.314,0 1.85775,-0.035 2.34375,-0.125 2.466,-0.45 4.59375,-2.53525 4.59375,-6.53125 0,-1.854 -0.5495,-3.919 -2.1875,-5.125 -1.566,-1.152 -3.78,-1.1875 -4.5,-1.1875 l -4.28125,0 z m 56.8125,1.6875 c 1.332,0 2.42875,0.7105 2.96875,2.3125 0.27,0.792 0.3125,1.6825 0.3125,2.3125 0,2.07 -0.443,3.07075 -0.875,3.71875 -0.522,0.81 -1.3035,1.21875 -2.4375,1.21875 -1.296,0 -1.94775,-0.49125 -2.34375,-1.03125 -0.774,-1.008 -0.96875,-2.41425 -0.96875,-3.65625 0,-1.476 0.1995,-2.88125 0.9375,-3.78125 0.522,-0.666 1.36225,-1.09375 2.40625,-1.09375 z m -54,0.40625 c 1.602,-0.072 2.33025,0.0255 2.90625,0.1875 1.746,0.486 2.375,2.19525 2.375,4.03125 0,0.63 -0.0582,2.55825 -1.15625,3.65625 -0.81,0.81 -1.84325,0.90625 -3.03125,0.90625 -0.324,0 -0.78775,-0.0132 -1.09375,-0.0312 l 0,-8.75 z m -10.625,0.4375 1.78125,5.53125 -3.71875,0 1.9375,-5.53125 z" id="path6396" inkscape:connector-curvature="0"/>
    <path style="font-size:18px;font-style:normal;font-variant:normal;font-weight:bold;font-stretch:normal;text-align:start;line-height:125%;writing-mode:lr-tb;text-anchor:start;opacity:0.5;fill:#ffffff;fill-opacity:1;stroke:none;font-family:Univers;-inkscape-font-specification:Univers Bold" d="m 369.37658,543.60799 c -1.044,0 -1.88425,0.42775 -2.40625,1.09375 -0.64025,0.78079 -0.85524,1.96113 -0.90625,3.21875 0.0907,-1.0601 0.35275,-2.04375 0.90625,-2.71875 0.522,-0.666 1.36225,-1.09375 2.40625,-1.09375 1.332,0 2.42875,0.7105 2.96875,2.3125 0.2354,0.6905 0.30035,1.42892 0.3125,2.03125 0.001,-0.0786 0,-0.1368 0,-0.21875 0,-0.63 -0.0425,-1.5205 -0.3125,-2.3125 -0.54,-1.602 -1.63675,-2.3125 -2.96875,-2.3125 z m -41.3125,0.125 0,0.5 3.5,11.15625 2.28125,0 3.5625,-11.15625 0,-0.5 -3.5625,11.15625 -2.28125,0 -3.5,-11.15625 z m -12.6875,0.28125 0,0.5 c 1.602,-0.072 2.33025,0.0255 2.90625,0.1875 1.66305,0.46291 2.31702,2.04631 2.375,3.78125 0.002,-0.0769 0,-0.19284 0,-0.25 0,-1.836 -0.629,-3.54525 -2.375,-4.03125 -0.576,-0.162 -1.30425,-0.2595 -2.90625,-0.1875 z m 79.09375,0 0,0.5 5.90625,0 0,-0.5 -5.90625,0 z m -47.84375,0.0312 0,0.5 3.84375,0 0,-0.5 -3.84375,0 z m 6.65625,0 0,0.5 3.875,0 0,-0.5 -3.875,0 z m 27,0.0625 0,0.5 5.03125,10.78125 3.84375,0 0,-0.5 -3.84375,0 -5.03125,-10.78125 z m -75.53125,0.34375 -1.9375,5.53125 0.1875,0 1.75,-5.03125 1.625,5.03125 0.15625,0 -1.78125,-5.53125 z m 18.78125,4.03125 c -0.0859,3.83519 -2.17904,5.84061 -4.59375,6.28125 -0.486,0.09 -1.02975,0.125 -2.34375,0.125 l -4.03125,0 0,0.5 4.03125,0 c 1.314,0 1.85775,-0.035 2.34375,-0.125 2.466,-0.45 4.59375,-2.53525 4.59375,-6.53125 0,-0.0841 0.002,-0.16513 0,-0.25 z m 52.0625,0.125 c -0.0663,1.78814 -0.65762,3.63289 -1.65625,4.75 -1.44,1.62 -3.545,1.875 -4.625,1.875 -1.71,0 -3.40575,-0.53925 -4.59375,-1.78125 -1.0665,-1.134 -1.44754,-2.62872 -1.5625,-3.8125 0.0559,1.23236 0.32885,3.00077 1.5625,4.3125 1.188,1.242 2.88375,1.78125 4.59375,1.78125 1.08,0 3.185,-0.255 4.625,-1.875 1.062,-1.188 1.65625,-3.20375 1.65625,-5.09375 0,-0.0466 7.6e-4,-0.10773 0,-0.15625 z m 18.875,0.625 0,0.5 5.53125,0 0,-0.5 -5.53125,0 z m -92.375,2.84375 -0.96875,2.8125 -2.46875,0 -0.1875,0.5 2.65625,0 0.96875,-2.8125 5.15625,0 0.9375,2.8125 2.8125,0 -0.1875,-0.5 -2.625,0 -0.9375,-2.8125 -5.15625,0 z m 23.375,2.8125 0,0.5 2.59375,0 0,-0.5 -2.59375,0 z m 11.9375,0 0,0.5 2.78125,0 0,-0.5 -2.78125,0 z m 5.03125,0 0,0.5 2.8125,0 0,-0.5 -2.8125,0 z m 8.03125,0 0,0.5 2.8125,0 0,-0.5 -2.8125,0 z m 27.1875,0 0,0.5 2.625,0 0,-0.5 -2.625,0 z m 14,0 0,0.5 8.9375,0 0,-0.5 -8.9375,0 z" id="path6403" inkscape:connector-curvature="0"/>
    <path style="opacity:0.18260534;fill:url(#linearGradient6431);fill-opacity:1;stroke:none" d="m 299.51396,490.9496 -14.6875,14.65625 c -9.45012,9.44098 -15.00408,15.37802 -15.65625,16.71875 -0.55656,1.14418 -1.35013,2.22156 -1.75,2.375 -1.05781,0.40592 -0.88988,1.80985 0.375,3.15625 l 1.09375,1.1875 18.90625,-18.90625 18.90625,-18.875 -3.59375,-0.15625 -3.59375,-0.15625 z m 14.15625,0 -23.46875,23.5 c -12.91923,12.91436 -23.5,23.60626 -23.5,23.78125 0,0.175 0.61875,1.1147 1.375,2.0625 0.75625,0.9478 1.52121,1.71874 1.6875,1.71875 0.16629,10e-6 11.69833,-11.41875 25.65625,-25.375 l 25.375,-25.375 -3.5625,-0.15625 -3.5625,-0.15625 z m 14.09375,0 -30.25,30.25 c -23.88749,23.87168 -30.12181,30.343 -29.59375,30.78125 0.36783,0.30527 0.9433,1.21537 1.28125,2.03125 0.33795,0.81588 0.80444,1.5 1.03125,1.5 0.22681,0 14.8633,-14.45625 32.53125,-32.125 l 32.125,-32.125 -3.5625,-0.15625 -3.5625,-0.15625 z m 28.25,0 -39.40625,39.46875 c -37.81382,37.87501 -39.40625,39.56086 -39.40625,41.3125 l 0,1.84375 2.03125,-0.15625 c 1.97816,-0.1492 3.25956,-1.3699 43,-41.15625 l 40.9375,-41 -3.5625,-0.15625 -3.59375,-0.15625 z m 14.09375,0 -40.6875,40.8125 c -22.38994,22.4475 -40.71875,41.02874 -40.71875,41.28125 0,0.25251 1.45776,0.46875 3.25,0.46875 l 3.25,0 41.03125,-41.125 41.03125,-41.125 -3.5625,-0.15625 -3.59375,-0.15625 z m 14.09375,0 -40.75,40.875 c -22.41257,22.47105 -40.75,41.0215 -40.75,41.25 0,0.2285 1.49689,0.4375 3.3125,0.4375 l 3.28125,0 41.03125,-41.125 41.03125,-41.125 -3.59375,-0.15625 -3.5625,-0.15625 z m -99.09375,0.0625 -7.6875,7.65625 c -6.98969,6.94148 -7.71875,7.80402 -7.71875,9.375 0,1.71475 -1.07698,3.82066 -2.34375,4.59375 -0.81737,0.49883 -0.85177,1.96073 -0.0625,2.75 0.46038,0.46038 2.3947,-1.25883 8.53125,-7.625 4.36413,-4.52742 9.98696,-10.15502 12.5,-12.5 l 4.5625,-4.25 -3.875,0 -3.90625,0 z m 56.6875,0 -35.5625,35.59375 c -19.55567,19.58274 -35.47867,35.76801 -35.40625,35.96875 0.0724,0.20074 0.9125,0.91328 1.875,1.59375 0.9625,0.68047 1.84005,1.25765 1.9375,1.28125 0.0974,0.0236 16.9017,-16.7 37.375,-37.1875 l 37.25,-37.25 -3.75,0 -3.71875,0 z m 56.625,0 -40.71875,40.71875 c -22.40448,22.4062 -40.81248,40.96871 -40.90625,41.25 -0.10496,0.31487 1.11268,0.53125 3.1875,0.53125 l 3.375,0 41.25,-41.25 41.25,-41.25 -3.71875,0 -3.71875,0 z m 14.125,0 -40.90625,40.96875 c -22.51014,22.53638 -40.9375,41.09887 -40.9375,41.25 0,0.15112 1.54602,0.28125 3.4375,0.28125 l 3.4375,0 39.8125,-39.875 c 33.77384,-33.80742 39.8125,-40.06274 39.8125,-41.25 0,-1.33178 -0.10238,-1.375 -2.3125,-1.375 l -2.34375,0 z m 6.71875,7.4375 -37.03125,37.0625 c -20.36658,20.38032 -37.03125,37.27608 -37.03125,37.53125 0,0.25517 1.4502,0.46875 3.21875,0.46875 l 3.21875,0 30.40625,-30.375 c 36.75846,-36.70587 41.5941,-41.7019 40.75,-42 -0.3539,-0.12499 -1.2955,-0.76581 -2.09375,-1.4375 l -1.4375,-1.25 z m 4.93755,9.625 c -0.7634,0.25455 -65.00005,64.46028 -65.00005,64.96875 0,0.24471 1.46129,0.46875 3.25,0.46875 l 3.25,0 30.4375,-30.34375 30.46875,-30.3125 -0.9687,-1.5625 c -0.5213,-0.85488 -0.9365,-1.96458 -0.9375,-2.46875 -10e-4,-0.50417 -0.2252,-0.84167 -0.5,-0.75 z m 0.3437,13.34375 -25.65625,25.65625 c -14.10888,14.12097 -25.6771,25.85625 -25.6875,26.0625 -0.0104,0.20625 1.51767,0.375 3.375,0.375 l 3.375,0 23.6875,-23.6875 c 13.02677,-13.02893 23.60725,-23.88518 23.50005,-24.125 -0.1073,-0.23981 -0.7487,-1.31653 -1.4063,-2.375 l -1.1875,-1.90625 z m 0.5,13.34375 -18.65625,19 c -10.2625,10.44433 -18.6785,19.16875 -18.6875,19.375 -0.009,0.20625 1.52872,0.375 3.40625,0.375 l 3.40625,0 15.21875,-15.71875 c 15.034,-15.54033 17.9683,-18.78314 17.9375,-19.625 -0.01,-0.23726 -0.5926,-1.08693 -1.3125,-1.90625 l -1.3125,-1.5 z m 1.3125,13.875 c -0.8992,-0.01 -3.0312,2.12371 -12.375,11.6875 -6.62205,6.77793 -12.0958,12.51091 -12.1875,12.75 -0.0917,0.23908 1.38995,0.4375 3.3125,0.4375 l 3.5,0 7.96875,-8.28125 c 6.75365,-6.98822 8.05655,-8.55529 8.31255,-10.15625 0.1725,-1.079 0.8444,-2.38795 1.5625,-3.0625 1.4815,-1.39188 1.5278,-1.85442 0.4062,-3.09375 -0.1495,-0.16522 -0.2925,-0.27898 -0.5,-0.28125 z" id="path5281" inkscape:connector-curvature="0"/>
    <g style="font-size:18px;font-style:normal;font-variant:normal;font-weight:bold;font-stretch:normal;text-align:start;line-height:125%;writing-mode:lr-tb;text-anchor:start;fill:#ffffff;fill-opacity:1;stroke:none;font-family:Univers;-inkscape-font-specification:Univers Bold" transform="matrix(1.1423048,0,0,1.1423048,284.56884,571.82332)" id="g6511">
      <path id="path6508" d="m 16.14825,-49.330848 -1.723489,5.498752 -5.4987516,-0.300927 4.7053986,3.364907 -1.997058,5.143111 4.650685,-3.446978 4.267687,3.474335 -1.832917,-5.471394 4.623328,-2.98191 -5.772321,0.02736 -1.422562,-5.307253 z m 79.663501,0 -1.723489,5.498752 -5.498751,-0.300927 4.705399,3.364907 -1.997059,5.143111 4.650685,-3.446978 4.267684,3.474335 -1.832916,-5.471394 4.623336,-2.98191 -5.772326,0.02736 -1.422563,-5.307253 z m -36.603628,0.05471 c -4.679995,0 -6.237389,3.520031 -6.237389,6.976028 0,1.187999 0.192062,3.357543 1.614061,4.869541 1.187999,1.241999 2.885973,1.778203 4.595971,1.778203 1.079999,0 3.183329,-0.240276 4.623328,-1.860274 1.062,-1.187999 1.641419,-3.198399 1.641419,-5.088397 0,-1.277998 -0.282777,-3.312899 -1.668776,-4.896898 -1.277998,-1.439999 -3.182615,-1.778203 -4.568614,-1.778203 z m -25.824981,0.05471 c -3.617996,0 -5.143111,1.906834 -5.143111,4.048832 0,2.249998 1.691473,3.165405 4.78747,3.939404 1.655998,0.396 2.462128,0.598847 2.462128,1.750846 0,1.097999 -0.950129,1.80556 -2.462128,1.80556 -2.393997,0 -2.380056,-1.850129 -2.380056,-2.462127 l -2.845125,0 c 0.018,1.259999 0.07505,4.459186 5.061039,4.459186 3.599997,0 5.526109,-1.900332 5.526109,-4.240331 0,-2.537996 -2.209188,-3.125835 -4.459187,-3.665834 -1.871997,-0.468 -2.817768,-0.681632 -2.817768,-1.887631 0,-1.061999 0.837845,-1.778203 2.133844,-1.778203 1.925998,0 2.070487,1.519702 2.106487,1.969702 l 2.680983,0 c 0,-0.432 -6.39e-4,-1.471415 -0.738638,-2.407413 -0.971999,-1.223999 -2.562048,-1.531991 -3.912047,-1.531991 z m 7.030742,0.218856 0,13.021918 2.790411,0 0,-5.717607 4.951612,0 0,5.717607 2.790411,0 0,-13.021918 -2.817768,0 0,5.197825 -4.924255,0 0,-5.197825 -2.790411,0 z m 26.071193,0.05471 3.173409,12.994561 3.146052,0 2.544198,-9.93058 2.3527,9.93058 3.091338,0 3.33755,-12.994561 -2.680983,0 -2.106487,9.739082 -2.270629,-9.739082 -3.173408,0 -2.516842,9.739082 -2.024415,-9.739082 -2.872483,0 z m -7.249597,1.668775 c 1.331999,0 2.441911,0.723345 2.98191,2.325343 0.27,0.791999 0.300927,1.667986 0.300927,2.297985 0,2.069999 -0.443423,3.099907 -0.875423,3.747905 -0.521999,0.81 -1.300772,1.203707 -2.434771,1.203707 -1.295999,0 -1.956699,-0.499566 -2.352699,-1.039565 -0.774,-1.007999 -0.957494,-2.396478 -0.957494,-3.638477 0,-1.475999 0.219494,-2.875263 0.957494,-3.775262 0.521999,-0.665999 1.336057,-1.121636 2.380056,-1.121636 z" inkscape:connector-curvature="0" style="opacity:0.9591837"/>
      <path d="m 16.155749,-49.342653 -1.723489,5.498751 -5.498751,-0.300927 4.705399,3.364908 -1.997059,5.14311 1.012208,-0.765995 1.586704,-4.048832 -4.7053986,-3.364907 5.4987506,0.300927 1.44992,-4.623329 -0.328284,-1.203706 z m 79.663501,0 -1.723489,5.498751 -5.498751,-0.300927 4.705399,3.364908 -1.997059,5.14311 1.012208,-0.765995 1.586704,-4.048832 -4.705399,-3.364907 5.498751,0.300927 1.44992,-4.623329 -0.328284,-1.203706 z m -36.603628,0.05471 c -4.679995,0 -6.237389,3.52003 -6.237389,6.976027 0,1.187999 0.192062,3.357543 1.614061,4.869541 0.526715,0.550656 1.149108,0.970462 1.832917,1.258421 -0.445403,-0.252898 -0.867082,-0.549611 -1.231064,-0.930137 -1.421998,-1.511998 -1.614061,-3.681542 -1.614061,-4.869541 0,-3.455997 1.557394,-6.976028 6.23739,-6.976028 0.842854,0 1.876241,0.125273 2.845125,0.54714 -1.127689,-0.675801 -2.423818,-0.875423 -3.446979,-0.875423 z m -25.824981,0.05471 c -3.617996,0 -5.143111,1.906833 -5.143111,4.048831 0,1.558165 0.825603,2.499056 2.3527,3.173409 -1.142133,-0.64558 -1.750846,-1.503398 -1.750846,-2.845125 0,-2.141998 1.525115,-4.048832 5.143111,-4.048832 0.738383,0 1.556382,0.09924 2.297985,0.382998 -0.891612,-0.523809 -1.944602,-0.711281 -2.899839,-0.711281 z m 7.030742,0.218855 0,13.021919 0.601853,0 0,-12.693635 2.188558,0 0,-0.328284 -2.790411,0 z m 7.714666,0 0,5.197825 -4.322402,0 0,0.328284 4.924255,0 0,-5.197825 2.215915,0 0,-0.328284 -2.817768,0 z m 18.356528,0.05471 3.173408,12.994562 0.519783,0 -3.091338,-12.666278 2.325343,0 -0.05471,-0.328284 -2.872482,0 z m 7.413739,0 -2.215915,8.590089 0.300927,1.477277 2.516841,-9.739082 2.653627,0 -0.08203,-0.328284 -3.173408,0 z m 7.550524,0 -1.860274,8.562732 0.355641,1.504634 2.106487,-9.739082 1.997058,0 0.08203,-0.328284 -2.680984,0 z m -46.835135,2.133844 c 0.617585,0.48353 0.714618,1.231737 0.738638,1.53199 l 0.574496,0 c -0.08041,-0.499128 -0.349192,-1.255728 -1.313134,-1.53199 z m 26.29005,0.02736 c 0.562671,0.377788 1.023943,0.974984 1.313134,1.832917 0.27,0.791999 0.300927,1.667987 0.300927,2.297986 0,2.069999 -0.443423,3.099907 -0.875423,3.747905 -0.521999,0.81 -1.300771,1.203707 -2.434771,1.203707 -0.444705,0 -0.811562,-0.0377 -1.121636,-0.136785 0.401725,0.266838 0.93426,0.465068 1.72349,0.465068 1.133999,0 1.912771,-0.393706 2.43477,-1.203707 0.432,-0.647997 0.875423,-1.677905 0.875423,-3.747905 0,-0.629999 -0.03093,-1.505986 -0.300926,-2.297985 -0.388818,-1.153494 -1.065073,-1.860805 -1.914988,-2.161201 z m 15.046334,1.231064 -0.27357,1.066922 2.024416,8.535375 0.519783,0 -2.270629,-9.602297 z m -52.607456,1.504633 -5.252539,0.02736 0.08207,0.328284 4.650685,-0.02736 0.519783,-0.328284 z m 79.663497,0 -5.252535,0.02736 0.08203,0.328284 4.650735,-0.02736 0.51978,-0.328284 z m -70.663054,0.05471 c 0.468541,0.293804 1.190581,0.489144 2.188558,0.738638 0.782003,0.187681 1.562164,0.377464 2.243272,0.656568 -0.806929,-0.454411 -1.809389,-0.736275 -2.845125,-0.984851 -0.635699,-0.158926 -1.16539,-0.261274 -1.586705,-0.410355 z m 15.81233,2.626269 0,5.389324 0.601853,0 0,-5.389324 -0.601853,0 z m -13.158704,0.82071 c 0.31649,0.236737 0.492426,0.559539 0.492426,1.066921 0,1.098 -0.950128,1.805561 -2.462127,1.805561 -0.37553,0 -0.691116,-0.05766 -0.957494,-0.136785 0.351201,0.260088 0.823193,0.465068 1.559347,0.465068 1.511999,0 2.462127,-0.707561 2.462127,-1.80556 0,-0.768959 -0.362918,-1.132316 -1.094279,-1.395205 z m -7.194883,0.410354 c 0.01377,0.963868 0.04953,3.060886 2.297986,3.994118 -1.638265,-1.029667 -1.683758,-2.799585 -1.696133,-3.665834 l 2.243272,0 c -0.0043,-0.108925 0,-0.251916 0,-0.328284 l -2.845125,0 z m -10.915432,1.395206 -0.109428,0.08207 3.775262,3.06398 -0.08207,-0.218855 -3.583764,-2.927196 z m 79.663501,0 -0.109427,0.08207 3.775259,3.06398 -0.082,-0.218855 -3.583758,-2.927196 z" id="path6504" style="fill:#2e3436" inkscape:connector-curvature="0"/>
    </g>
    <path style="fill:#204a87;fill-opacity:1;stroke:none" d="m 371.11675,489.68993 c -0.6925,1.31412 -1.28714,2.67862 -1.8125,4.0625 0.40107,0.0802 0.64601,0.16025 0.78125,0.28125 0.51597,-1.35877 1.12571,-2.64929 1.8125,-3.9375 -0.0401,-0.13172 -0.0575,-0.27046 -0.0625,-0.40625 l -0.71875,0 z m 8.6875,0 c -2.7702,3.79184 -4.58724,8.17509 -5.25,12.75 0.11703,0.45063 0.27941,0.86052 0.59375,1.0625 0.17837,-1.63633 0.51426,-3.23034 0.96875,-4.8125 -0.0708,-0.41183 0.0114,-0.89546 0.34375,-1.375 0.0171,0.01 0.0453,0.0215 0.0625,0.0312 0.12074,-0.35086 0.20791,-0.68588 0.34375,-1.03125 0.15974,-1.27443 0.77423,-2.65763 1.625,-3.375 0.62546,-1.12198 1.31052,-2.21453 2.09375,-3.25 l -0.78125,0 z m 31.6875,0 c -0.40222,0.34108 -0.81884,0.63803 -1.21875,0.8125 -0.22969,0.37684 -0.18773,0.87537 0.21875,1.25 l 2.03125,3.3125 c 0.70908,0.0117 1.24747,0.16665 1.3125,0.8125 -0.12469,0.34494 -0.20366,0.6272 -0.28125,0.875 l 0.40625,0.6875 c 0.25424,-0.2783 0.56443,-0.57602 0.84375,-0.90625 -0.392,0.0364 -0.73818,-0.23777 -0.9375,-0.90625 l -2.8125,-4.625 0.1875,-0.15625 0.1875,-0.0937 c 0.14876,-0.12266 0.30163,-0.25188 0.46875,-0.34375 0.82336,-0.45262 1.82528,-0.48632 2.625,-0.0625 0.0149,-0.21826 0.0309,-0.44118 0.0625,-0.65625 l -1.15625,0 c 0.0113,0.0782 0.0114,0.15377 0.0312,0.21875 -0.0573,-0.0699 -0.12487,-0.14647 -0.1875,-0.21875 l -1.78125,0 z m -3.53125,0.0937 -0.78125,0.4375 c -0.14238,0.24601 -0.13629,0.47479 -0.0625,0.6875 0.53932,0.13695 0.88448,0.51118 0.8125,1.34375 l 1.3125,2.15625 c 0.46055,0.19934 0.69278,0.6363 0.8125,1.15625 -0.0383,-0.0105 -0.0842,-0.0217 -0.125,-0.0312 l 0.59375,0.96875 c 0.47736,0.43379 0.7727,0.92055 0.90625,1.46875 0.0166,0.0194 0.0135,0.0433 0.0312,0.0625 0.2151,0.23296 0.49129,0.47654 0.84375,0.6875 -0.003,0.006 0.0339,-0.006 0.0312,0 -0.051,0.1152 -0.15202,0.24306 -0.25,0.34375 l 0.8125,1.3125 c 0.13791,0.0798 0.24916,0.12378 0.375,0.125 -0.66295,-0.48373 -1.04477,-1.06277 -0.75,-1.65625 0.19765,0.1089 0.41017,0.2119 0.625,0.3125 l -3.9375,-6.4375 c 0.026,0.14198 0.0604,0.29222 0.0625,0.40625 -0.12655,-0.26609 -0.23391,-0.56681 -0.34375,-0.875 l -0.9375,-1.5 c 0.0999,-0.0552 0.21312,-0.12946 0.3125,-0.1875 -0.0829,-0.20845 -0.1539,-0.43197 -0.25,-0.625 0.0739,0.0501 0.15203,0.11153 0.21875,0.1875 -0.1111,-0.10155 -0.20437,-0.21184 -0.3125,-0.34375 z m 0.3125,0.34375 c 0.077,0.0877 0.14852,0.19788 0.21875,0.3125 0.0384,-0.0231 0.0865,-0.039 0.125,-0.0625 -0.10588,-0.0713 -0.23265,-0.14845 -0.34375,-0.25 z m -1.59375,2.21875 c -0.11557,0.0276 -0.21607,0.0508 -0.34375,0.0937 -0.048,0.006 -0.10808,0.0224 -0.15625,0.0312 -0.0372,0.0138 -0.0556,0.0472 -0.0937,0.0625 -0.0887,0.0194 -0.19337,0.007 -0.28125,0.0312 l 1.875,3.0625 c 0.12834,-0.22443 0.30208,-0.43866 0.53125,-0.6875 0.0395,0.0241 0.0544,0.0671 0.0937,0.0937 l -1.625,-2.6875 z m -3.25,0.0937 c -0.35089,0.60627 0.16293,1.08658 0.4375,1.59375 l 1.1875,1.90625 c 0.18893,-0.24221 0.38234,-0.48777 0.59375,-0.6875 l -0.875,-1.40625 c -0.16522,-0.0845 -0.33973,-0.19225 -0.53125,-0.4375 -0.1154,0.0835 -0.21062,0.13524 -0.3125,0.21875 -0.0776,-0.12856 -0.1564,-0.26989 -0.25,-0.4375 0.0873,-0.28694 0.0503,-0.5545 -0.25,-0.75 z m -33.625,2.375 c -0.31702,0.19162 -0.72832,0.27809 -1,0.1875 -3.27655,9.72057 -2.3711,20.79223 3.40625,30.21875 0.34105,0.55646 0.69617,1.0934 1.0625,1.625 0.40702,-0.25339 0.66156,-0.39349 0.8125,-0.40625 -0.38611,-0.55443 -0.76749,-1.10417 -1.125,-1.6875 -5.73799,-9.36228 -6.55072,-20.33664 -3.15625,-29.9375 z m 28.59375,0.90625 c -0.32445,0.0254 -0.60844,0.24371 -0.90625,0.4375 0.24516,0.1503 0.48532,0.29988 0.75,0.4375 0.0738,-0.23527 0.12696,-0.51572 0.15625,-0.875 z m 7.59375,0.0937 c -0.139,0.14641 -0.46764,0.26103 -0.78125,0.40625 l 3.1875,5.1875 c 0.25984,-0.31755 0.41057,-0.59579 0.46875,-0.875 l -0.8125,-1.34375 c -0.50535,-0.0533 -0.89903,-0.35758 -0.5625,-0.9375 l -1.5,-2.4375 z m 9.75,0.1875 c -0.0242,0.20514 -0.0671,0.50099 -0.21875,0.96875 0.0157,0.0668 0.0503,0.12356 0.0625,0.1875 0.20358,-0.14622 0.40417,-0.32765 0.59375,-0.5 -0.14426,-0.2125 -0.27859,-0.4324 -0.40625,-0.65625 -5.4e-4,0.005 -0.0308,-0.005 -0.0312,0 z m -16.625,0.21875 c -0.10254,0.2582 -0.34292,0.38585 -0.65625,0.46875 0.37402,0.17716 0.76718,0.31633 1.15625,0.34375 l -0.5,-0.8125 z m -2.625,0.65625 c 0.0179,0.018 0.0132,0.0765 0.0312,0.0937 -0.14214,0.011 -0.25075,0.0111 -0.375,0.0312 -0.27136,0.54391 0.16243,0.97988 0.4375,1.4375 0.0459,-0.042 0.10517,-0.086 0.15625,-0.125 0.18289,-0.31447 0.25872,-0.55036 0.3125,-0.75 l -0.0625,-0.0937 c 0.0365,-0.0114 0.0869,-0.0435 0.125,-0.0625 0.0498,-0.42814 -0.23751,-0.5648 -0.625,-0.53125 z m 0.25,0.21875 c 0.11282,0.0889 0.20163,0.16561 0.3125,0.21875 -0.0893,-0.0242 -0.15912,-0.036 -0.25,-0.0625 -0.021,-0.05 -0.0429,-0.10568 -0.0625,-0.15625 z m 20.0625,0.34375 c -0.33695,0.24373 -0.67582,0.47347 -1.03125,0.65625 l -0.15625,0.125 c -0.0897,0.6103 -0.41825,1.01026 -0.84375,1.34375 -0.15876,-0.16977 -0.34898,-0.31444 -0.53125,-0.5 l -0.5625,0.3125 c 0.042,0.0173 0.0827,0.0456 0.125,0.0625 -0.0646,0.43307 -0.20308,0.80433 -0.4375,1.0625 0.3869,-0.0463 0.7632,-0.39789 1.125,-0.59375 0.38839,-0.25718 0.80311,-0.50462 1.21875,-0.75 0.15167,-0.44918 0.43294,-0.84589 0.84375,-1.15625 0.14523,-0.10971 0.30142,-0.19021 0.46875,-0.28125 -0.0791,-0.0879 -0.14285,-0.19051 -0.21875,-0.28125 z m -16.21875,1.21875 c -0.0597,0.15869 -0.0972,0.34642 -0.125,0.59375 -0.15712,-0.0361 -0.37826,-0.0663 -0.5625,-0.0937 l 0.90625,1.46875 c 0.0584,-0.044 0.13998,-0.12223 0.1875,-0.15625 0.53298,-0.3818 0.42457,-0.0618 0.25,0.40625 -0.10251,0.003 -0.21169,-0.006 -0.3125,0 l 2.0625,3.3125 c 0.0635,0.0368 0.1268,0.0752 0.1875,0.0937 -0.0939,-0.3751 -0.10576,-0.78739 0.0937,-1.25 l -0.5,-0.84375 c -0.38364,-0.14773 -0.90678,-0.69128 -1.34375,-1.84375 0.11751,0.0485 0.20778,0.10674 0.3125,0.15625 l -1.15625,-1.84375 z m -3.71875,0.25 5.03125,8.21875 c 0.60627,0.35088 1.08659,-0.19417 1.59375,-0.46875 l 0.78125,-0.46875 c -0.16341,-0.23743 -0.32573,-0.47845 -0.5,-0.71875 l -1.375,0.84375 -1.625,-2.6875 c -0.19425,0.10698 -0.36773,0.22659 -0.53125,0.375 0.13009,-0.19402 0.26792,-0.3627 0.40625,-0.5625 l -2.75,-4.46875 c -0.40032,-0.0209 -0.70416,-0.0429 -1.03125,-0.0625 z m -5.09375,0.8125 c -0.11454,0.0144 -0.23816,0.0512 -0.34375,0.0937 -0.0147,0.0918 -0.0105,0.21302 0,0.3125 -0.0552,-0.0752 -0.10629,-0.14276 -0.15625,-0.21875 -0.0654,0.0349 -0.12444,0.0529 -0.1875,0.0937 -0.31532,0.20433 -0.60689,0.48499 -0.9375,0.625 l -0.96875,0.5625 c -0.40204,0.67855 0.10994,1.43641 0.15625,2.15625 l 1.40625,6.75 c 0.19953,-0.40671 0.31312,-1.04582 0.5,-1.71875 l -1.34375,-6.59375 1.9375,-1.1875 2.59375,2.125 c 0.20207,-0.10825 0.3711,-0.35839 0.5,-0.6875 l -2.8125,-2.28125 c -0.12065,-0.0292 -0.22921,-0.0457 -0.34375,-0.0312 z m 19.625,0.34375 c -0.0538,0.36202 -0.11058,0.72666 -0.1875,1.09375 -0.63789,0.34212 -1.12055,0.78889 -1.25,1.53125 0.27415,-0.12245 0.51206,-0.35427 0.78125,-0.5 0.49045,-0.35073 1.24626,-0.49177 1.21875,-1.21875 l -0.5625,-0.90625 z m 10.5,0.625 c -0.0605,0.0788 -0.13722,0.1506 -0.25,0.21875 0.26344,0.92989 1.44141,-0.32569 1.5,0.9375 0.0219,0.17514 0.0844,0.3156 0.15625,0.46875 0.13266,0.0915 0.18965,0.20402 0.1875,0.3125 0.0673,0.0921 0.13759,0.17241 0.21875,0.25 0.30951,-0.28433 0.66531,-0.53923 1.03125,-0.75 l 0,-0.0937 c -0.37053,-0.24756 -0.68158,-0.6303 -0.84375,-1.03125 -0.68449,-0.0346 -1.35852,-0.14574 -2,-0.3125 z m -0.59375,0.3125 c -0.31207,0.0962 -0.64381,0.49086 -0.6875,1 -0.16151,-0.39487 -0.30584,-0.47176 -0.46875,-0.40625 0.006,0.0279 -0.007,0.0657 0,0.0937 -0.0231,-0.0176 -0.0394,-0.0455 -0.0625,-0.0625 -0.18615,0.10342 -0.39431,0.35843 -0.6875,0.46875 0.0389,0.0347 0.0564,0.0853 0.0937,0.125 0.26646,-8.7e-4 0.54432,-6.5e-4 0.84375,-0.0312 0.29308,0.71702 0.85271,1.38251 1.71875,1.84375 -0.47253,-0.76633 -1.39881,-1.63016 -0.21875,-2.21875 0.0627,-0.67867 -0.21918,-0.90869 -0.53125,-0.8125 z m -14.03125,0.0937 c -0.11411,0.0165 -0.23174,0.0858 -0.34375,0.1875 l -2.3125,1.4375 c 0.0371,0.0332 0.0555,0.027 0.0937,0.0625 0.30984,0.10119 0.59913,0.24831 0.84375,0.375 l 1.78125,-1.125 c 0.40719,0.5396 0.74055,1.07839 -0.125,1.3125 l -0.28125,0.1875 c 0.0907,0.21736 -0.026,0.45143 -0.1875,0.625 0.0826,0.1163 0.18748,0.21989 0.25,0.34375 l 1.375,-0.84375 c -0.3763,-0.25697 -0.58389,-0.77517 -0.4375,-1.75 0.0787,-0.0703 0.11972,-0.15062 0.1875,-0.21875 -0.18444,-0.34043 -0.50142,-0.64332 -0.84375,-0.59375 z m -15.25,1.3125 -0.6875,0.4375 0.1875,0.8125 c 0.0184,-0.14785 0.0695,-0.24244 0.125,-0.3125 0.34523,-0.43536 1.36243,0.47414 2.53125,0.96875 0.003,-0.007 0.0291,-0.0251 0.0312,-0.0312 l -2.1875,-1.875 z m 3.625,0.21875 -0.3125,0.28125 c 0.0395,0.18941 0.0224,0.36755 0,0.5625 l 5,4.09375 c -0.50669,0.15386 -1.06587,1.00957 -1.53125,0.625 -0.5379,-0.40355 -1.01794,-0.96912 -1.59375,-1.28125 -0.69715,-0.13472 -1.20703,0.59292 -1.8125,0.84375 -0.79596,0.53443 -1.71812,0.93172 -2.4375,1.53125 -0.33535,0.65439 0.20261,1.40718 0.25,2.09375 0.4032,0.69224 -0.53996,0.80278 -0.9375,1.15625 -0.3114,-0.13143 -0.29303,-1.08565 -0.46875,-1.53125 l -0.125,-0.6875 -0.34375,0.34375 c 0.12003,0.47521 0.0371,0.96059 -0.15625,1.46875 l 0.25,1.25 c 0.5576,0.47925 1.0339,0.046 1.53125,-0.28125 0.53286,-0.34673 1.49487,-0.69183 1.15625,-1.5 l -0.40625,-1.8125 3.3125,-2 c 0.24866,0.18965 0.47822,0.41508 0.71875,0.625 0.0234,-0.12825 0.0236,-0.28385 0.0625,-0.375 0.58642,0.26864 0.97036,0.58935 1.1875,0.84375 0.32271,-0.30127 0.63717,-0.57892 0.96875,-0.8125 0.008,-0.005 0.0237,-0.0262 0.0312,-0.0312 0.29511,0.08 0.55474,0.19815 0.84375,0.28125 0.42845,-0.23332 0.74133,-0.76589 0.375,-1.15625 l -1.53125,-1.25 c -0.65984,0.2926 -0.80733,-0.0229 -0.75,-0.59375 l -3.28125,-2.6875 z m 22.21875,0.40625 c -0.24747,0.0335 -0.48809,0.14296 -0.78125,0.375 -0.15189,0.009 -0.29703,0.0805 -0.40625,0.15625 -0.10538,0.0731 -0.18267,0.16913 -0.25,0.28125 0.33794,0.0359 0.66016,0.0604 0.96875,0.15625 0.009,0.027 0.022,0.0666 0.0312,0.0937 0.50284,-0.25367 1.42479,0.14274 0.40625,0.53125 -0.063,0.0287 -0.10079,0.0602 -0.15625,0.0937 0.10624,0.28357 0.19514,0.55691 0.3125,0.8125 0.0754,-0.11864 0.17215,-0.19037 0.28125,-0.28125 0.25956,-0.0997 0.45094,-0.1112 0.5625,-0.0625 0.43616,-0.56579 0.53933,-1.2191 0,-1.8125 -0.0516,-0.0567 -0.15545,-0.10078 -0.21875,-0.15625 -0.0225,-0.014 -0.0397,-0.0499 -0.0625,-0.0625 -0.20976,-0.11568 -0.44003,-0.15844 -0.6875,-0.125 z m -32.25,0.5 c -0.19465,0.0149 -0.37396,0.10118 -0.5625,0.21875 -0.1257,0.0786 -0.24922,0.19558 -0.375,0.28125 -0.5033,0.37167 -1.51221,0.63217 -1.25,1.4375 l 0.0312,0.15625 c 0.33757,-0.36614 0.47636,-0.5973 0.46875,-0.75 0.27374,0.0842 0.49461,0.14837 0.65625,0.25 0.14844,-0.1035 0.28907,-0.23801 0.4375,-0.34375 0.26389,-0.18797 0.48664,-0.28105 0.53125,0.0312 l 0.9375,4.75 c 0.0208,0.003 0.0416,-0.003 0.0625,0 0.0198,0.024 0.0427,0.0713 0.0625,0.0937 0.39056,0.16941 0.63668,0.21912 0.8125,0.21875 l -0.46875,-2.375 c -0.30226,-0.50434 -0.44331,-1.02664 -0.3125,-1.59375 l -0.40625,-2.125 c -0.20867,-0.18512 -0.43035,-0.26488 -0.625,-0.25 z m -10.53125,0.34375 c -0.34398,0.44737 -0.62483,0.99285 -0.8125,1.59375 -0.0453,1.20756 0.0147,2.41343 0.125,3.625 0.10583,0.0665 0.19503,0.14975 0.28125,0.21875 0.23553,0.18851 0.3906,0.355 0.5,0.5625 -0.19675,-1.63344 -0.24736,-3.27911 -0.15625,-4.90625 -0.002,-0.008 -0.0298,0.008 -0.0312,0 -0.0693,-0.37364 -0.0192,-0.72933 0.0937,-1.09375 z m 21.625,0.125 c 0.0142,0.0192 -0.0134,0.0438 0,0.0625 -0.0677,0.0491 -0.13936,0.0835 -0.21875,0.125 0.072,-0.0603 0.15009,-0.11078 0.21875,-0.1875 z m 8.84375,0.375 -0.84375,0.5 c -0.21655,0.42276 -0.2865,0.83931 -0.25,1.1875 l 1.875,-1.15625 c -0.0858,-0.033 -0.15796,-0.0636 -0.25,-0.0937 -0.18355,-0.17074 -0.36723,-0.31794 -0.53125,-0.4375 z m -13.34375,0.21875 c -0.14596,0.0226 -0.31123,0.0439 -0.46875,0.0937 l 0.28125,1.3125 c 0.068,-0.0275 0.14789,-0.0684 0.21875,-0.0937 0.16617,-0.0724 0.30031,-0.11414 0.4375,-0.1875 0.0358,-0.0815 0.0686,-0.17896 0.0937,-0.25 l -0.1875,-0.875 c -0.10933,-0.0304 -0.22904,-0.0226 -0.375,0 z m 22,0.71875 c -0.0447,0.0244 -0.0837,0.0516 -0.125,0.0937 -0.2065,0.21107 -0.39017,0.63773 -0.4375,1.03125 0.0279,-0.0249 0.0611,-0.0709 0.0937,-0.0937 0.99796,-0.35058 1.48521,0.58868 1.5,1.375 0.0918,-0.17761 0.22404,-0.30969 0.34375,-0.375 0.11433,-0.0624 0.25499,-0.0622 0.375,0.0312 0.006,0.005 -0.006,0.026 0,0.0312 -0.009,0.31867 0.0274,0.62958 0.125,0.96875 -0.28381,-0.19864 -0.58237,-0.32459 -0.875,-0.4375 -0.0732,0.67103 -0.49929,1.1061 -1.375,0.25 -0.23033,-0.26548 -0.40983,-0.65869 -0.4375,-1.03125 -0.20589,0.23364 -0.36544,0.4995 -0.46875,0.78125 -0.13421,0.0527 -0.27263,0.11608 -0.40625,0.1875 0.10031,0.0716 0.18157,0.12568 0.28125,0.1875 -0.0202,0.12435 -0.003,0.24087 0,0.375 l 1.71875,2.78125 c 0.60123,-0.14249 0.757,-0.37074 0.75,-0.65625 -0.024,-0.007 -0.0386,0.007 -0.0625,0 -0.0382,-0.17206 -0.1208,-0.36562 -0.25,-0.53125 -0.31523,0.26089 -0.71502,0.35226 -0.96875,-0.125 0.19373,-0.0389 0.43499,-0.10817 0.65625,-0.15625 -0.0434,-0.036 -0.0762,-0.0587 -0.125,-0.0937 0.11592,-0.0362 0.22812,-0.0706 0.34375,-0.0937 -0.11429,-0.20579 -0.21637,-0.42682 -0.25,-0.625 0.19347,0.0412 0.36911,0.0491 0.53125,0.0312 -0.0529,-0.0738 -0.0722,-0.14352 -0.0937,-0.25 0.25204,0.005 0.50267,-0.0358 0.78125,-0.0625 0.74424,-0.6573 0.76193,-2.1705 -0.0312,-2.9375 -0.2726,0.0576 -0.55927,0.12824 -0.8125,0.21875 -0.15333,-0.52835 -0.32516,-0.78958 -0.5,-0.875 -0.008,-2.6e-4 -0.0232,0.0315 -0.0312,0.0312 -0.0867,-0.002 -0.164,-0.0426 -0.25,-0.0312 z m 5.3125,0.28125 c -0.2779,-0.0249 -0.49857,0.0183 -0.625,0.15625 -0.014,0.0153 -0.0196,0.0134 -0.0312,0.0312 -0.0297,0.0756 -0.0194,0.17869 -0.0625,0.25 -0.0126,0.13767 -0.002,0.31392 0.0625,0.53125 -0.2156,0.13296 -0.44305,0.27988 -0.71875,0.4375 -0.008,0.004 -0.0238,0.0272 -0.0312,0.0312 -0.31878,-0.0728 -0.64798,-0.20895 -0.96875,-0.34375 0.34146,0.73915 1.1416,1.18293 1.9375,0.25 0.11746,-0.86399 1.45599,-0.55971 1.40625,-1.125 -0.35497,-0.10672 -0.69085,-0.19386 -0.96875,-0.21875 z m -2.09375,0.0312 c -0.15267,-0.006 -0.30692,0.0247 -0.4375,0.0625 -0.0422,0.23569 -0.0265,0.48944 0.0312,0.71875 0.33262,-0.12178 0.65151,-0.28618 0.9375,-0.46875 -0.0131,-0.0691 -0.0547,-0.1323 -0.0625,-0.21875 -0.17102,-0.058 -0.31608,-0.0882 -0.46875,-0.0937 z m -7.53125,0.3125 -0.9375,0.59375 c 0.21933,1.31465 1.54137,0.57942 1.40625,-0.0937 -0.004,-0.007 0.004,-0.024 0,-0.0312 -0.0537,-0.0872 -0.12797,-0.19042 -0.15625,-0.28125 -0.0117,-0.0112 -0.0183,-0.0204 -0.0312,-0.0312 -0.0696,-0.0587 -0.1707,-0.10845 -0.28125,-0.15625 z m -15.0625,0.0312 -1.71875,1.0625 -0.1875,-0.96875 c -0.0201,1.5e-4 -0.0426,-10e-4 -0.0625,0 0.0101,0.15129 0.0268,0.33042 0.0625,0.53125 -0.25773,-0.003 -0.56363,-0.0224 -0.78125,-0.0312 l 0.1875,0.8125 c 0.23851,0.0245 0.42471,0.0564 0.59375,0.15625 0.0234,0.18981 0.0689,0.34049 0.0937,0.46875 0.3216,-0.0378 0.62665,-0.29546 0.9375,-0.5 l 1.8125,-1.09375 c -0.31477,-0.11783 -0.61282,-0.27885 -0.90625,-0.4375 -0.004,-0.003 -0.0273,0.002 -0.0312,0 z m -2.40625,0.125 c -0.12736,0.0156 -0.24334,0.0452 -0.375,0.0625 l 0.0625,0.3125 c 0.0947,-0.12549 0.19652,-0.26489 0.3125,-0.375 z m 19.9375,0.34375 c -0.11825,0.0371 -0.20531,0.0477 -0.28125,0.0937 0.12338,0.0763 0.26129,0.15092 0.40625,0.21875 -0.22149,0.10681 -0.41906,0.24721 -0.625,0.375 0.0865,0.28132 0.36919,0.57819 0.5625,0.875 0.25189,-0.37642 0.37116,-0.82831 0.3125,-1.4375 -0.0956,0.007 -0.23373,-0.0387 -0.375,-0.125 z m -27.84375,0.0312 c -0.23482,0.15599 -0.51393,0.23698 -0.78125,0.25 l 1.03125,4.65625 c 0.26665,-0.0779 0.54712,-0.22601 0.8125,-0.375 l -1.0625,-4.53125 z m 23.59375,0.5625 -0.96875,0.59375 c 0.002,0.0199 -0.002,0.0426 0,0.0625 l 1.59375,2.59375 c 0.0268,-0.005 0.0678,0.003 0.0937,0 0.008,-8.7e-4 0.0234,-0.0306 0.0312,-0.0312 0.023,0.005 0.0423,0.0251 0.0625,0.0312 0.29629,0.0886 0.28274,0.29974 0.15625,0.53125 0.12901,0.0519 0.25856,0.0952 0.40625,0.125 -0.0309,0.11089 -0.0797,0.23171 -0.125,0.34375 l 0.6875,1.15625 c 1.31707,-0.31219 0.7109,-1.18166 0.1875,-1.90625 l -2.125,-3.5 z m 2.71875,0.34375 -0.96875,0.59375 2.03125,3.34375 c 1.31707,-0.31219 0.71089,-1.2129 0.1875,-1.9375 l -1.25,-2 z m -32.09375,0.4375 c -0.27393,0.012 -0.54476,0.12796 -0.78125,0.28125 -0.31531,0.20434 -0.57564,0.48499 -0.90625,0.625 l -0.78125,0.46875 c -0.25287,0.69392 0.31768,0.99024 0.8125,1.34375 l 2.75,2.1875 c 0.0451,-0.0789 0.11023,-0.15736 0.1875,-0.21875 0.15123,-0.12014 0.34961,-0.18437 0.59375,-0.25 l -3.34375,-2.65625 c 0.5048,-0.23574 1.00938,-0.79628 1.5,-0.84375 l 3.90625,3.28125 c 0.47941,-0.01 0.90692,6.5e-4 1.25,-0.0312 l -4.90625,-4.15625 c -0.0965,-0.0233 -0.18994,-0.0353 -0.28125,-0.0312 z m -7.8125,0.25 c 0.0645,0.58444 0.0581,0.52643 0,0 z m 0.625,1.1875 c 0.002,-0.0427 1.5e-4,0.20141 -0.0312,0.875 0.0233,-0.50291 0.0292,-0.83234 0.0312,-0.875 z m 3.71875,1.59375 c -0.0463,0.0425 -0.0786,0.0821 -0.125,0.125 -0.15541,0.0731 -0.31333,0.1755 -0.46875,0.25 0.39902,2.37511 1.09601,4.73089 2.125,7 0.31581,-0.16609 0.49652,-0.24454 0.625,-0.25 -1.04459,-2.30036 -1.71497,-4.685 -2.09375,-7.09375 -0.0119,-0.006 -0.05,-0.0253 -0.0625,-0.0312 z m 30,0.3125 c -0.058,0.18722 -0.0986,0.39422 -0.0937,0.59375 0.026,-0.18331 0.0784,-0.36098 0.0937,-0.59375 z m -17.5625,0.15625 c -0.27868,0.29081 -0.16052,0.33715 0.0625,0.28125 l -0.0625,-0.28125 z m 21.15625,0.8125 c -0.0417,0.0544 -0.0474,0.10097 -0.0937,0.15625 -0.62004,0.36997 -0.76537,0.46443 -0.96875,0.59375 -0.06,0.10196 -0.15555,0.16842 -0.25,0.1875 0.0189,0.0208 0.0428,0.0109 0.0625,0.0312 0.22611,-0.0317 0.6798,-0.10741 1.21875,-0.0937 0.10339,-0.32401 0.0998,-0.6387 0.0312,-0.875 z m -23.3125,0.53125 c -0.14294,0.007 -0.30734,1.5e-4 -0.46875,0.0312 l 0.0625,0.3125 c 0.12726,0.1383 0.23064,0.29064 0.25,0.4375 -0.10249,-0.1331 -0.21975,-0.28687 -0.3125,-0.46875 l -0.21875,-0.1875 c -0.21393,0.0513 -0.40965,0.0985 -0.65625,0.1875 0.007,0.12493 -0.005,0.25004 0,0.375 l 1.375,1.15625 c 0.74781,-0.20631 0.72182,-0.74862 0.46875,-1.375 l -0.0937,-0.46875 c -0.12269,-0.009 -0.26331,-0.007 -0.40625,0 z m 18.71875,0.375 c -0.35534,0.24808 -0.71971,0.46405 -1.09375,0.6875 -0.0154,0.0741 -0.008,0.14471 -0.0312,0.21875 0.16854,0.53102 0.68968,0.48173 1.15625,0.21875 0.0656,-0.3465 0.0735,-0.72595 -0.0312,-1.125 z m -3.125,0.34375 c -0.24377,0.006 -0.506,0.10916 -0.71875,0.25 -0.57421,0.51816 -0.70106,1.29182 -1.53125,0.96875 -0.86814,0.68812 0.49402,1.53129 0.75,2.28125 l 0.875,1.40625 c 0.18695,-0.0545 0.32104,-0.12032 0.4375,-0.1875 -0.10215,-0.0637 -0.18073,-0.13297 -0.28125,-0.21875 -0.0453,-0.0996 0.20823,-0.29334 0.59375,-0.53125 -0.2566,-0.82215 -1.6869,-1.90008 -0.84375,-2.75 0.43313,-0.14235 0.75775,0.0237 1,0.3125 -0.0341,-0.38083 -0.0352,-0.81551 -0.0625,-1.03125 0.13147,-0.0632 0.3618,-0.0669 0.6875,0 -0.0769,-0.0934 -0.15718,-0.16682 -0.21875,-0.25 -0.2055,-0.16533 -0.44373,-0.25593 -0.6875,-0.25 z m -19.6875,0.3125 c -0.11244,-0.001 -0.25117,0.003 -0.375,0.0312 l 1.625,1.25 c 0.0119,-0.59655 -0.46294,-1.27132 -1.25,-1.28125 z m 2.78125,1.4375 c 0.0123,0.38777 0.0593,0.76996 0.0937,1.15625 l 0.875,0.6875 c 0.45302,-0.19408 0.86608,-0.48576 1.1875,-0.84375 l -0.5,0.28125 -1.65625,-1.28125 z m 4.25,0.0625 c -0.24882,0.32628 -0.30975,0.59476 -0.25,0.78125 0.22968,-0.20584 0.36484,-0.44964 0.25,-0.78125 z m 14.4375,0.65625 c -0.10633,0.006 -0.19373,0.0355 -0.25,0.0625 0.0128,0.10106 0.0476,0.32655 0.0625,0.46875 0.20217,-0.15321 0.37686,-0.31804 0.5625,-0.5 -0.13378,-0.0228 -0.26867,-0.0374 -0.375,-0.0312 z m -5,0.28125 c -0.43881,0.36021 -0.69688,0.62058 -0.75,0.71875 0.0212,0.007 0.0145,0.0213 0.0312,0.0312 0.15579,-0.0351 0.57276,-0.25952 1,-0.59375 -0.084,-0.0517 -0.17309,-0.10726 -0.28125,-0.15625 z m -30.75,0.6875 c 0.089,0.58124 0.0801,0.52353 0,0 z m 31.5,0.0312 c -0.24927,0.12858 -0.4853,0.27385 -0.6875,0.4375 -0.0949,-4.8e-4 -0.16859,-0.006 -0.28125,0 -0.0668,0.11437 -0.11735,0.22109 -0.15625,0.3125 -0.003,0.006 -0.0291,0.0251 -0.0312,0.0312 -0.12595,0.0969 -0.22073,0.2323 -0.34375,0.34375 0.0761,-0.14321 0.0663,-0.30693 -0.0625,-0.40625 -0.32465,0.39731 -0.89202,0.63778 -0.875,-0.0937 -0.1539,0.0154 -0.26871,0.0213 -0.46875,0.0625 -0.005,1.04072 0.59795,1.00173 1.03125,0.71875 -0.2291,0.22715 -0.42721,0.48498 -0.65625,0.71875 -0.007,-8.7e-4 -0.0246,9e-4 -0.0312,0 -0.16892,-0.0269 -0.3459,-0.0273 -0.53125,-0.0312 0.44975,0.84148 1.32721,1.42567 2.3125,1.125 -0.15759,-0.21367 -0.29297,-0.39942 -0.5,-0.5625 0.89096,-0.14152 1.16486,0.0456 1.15625,0.28125 0.78665,-0.7151 1.1206,-2.53069 -0.15625,-1.46875 0.0296,1.15212 -2.04895,1.09559 -1.34375,0.0937 0.82401,-0.25049 1.80551,-0.90888 1.625,-1.5625 z m -5.375,1.375 c -0.13382,0.0136 -0.25191,0.0197 -0.375,0.0625 0.17179,0.11922 0.34666,0.22415 0.5625,0.3125 -0.0663,-0.12011 -0.12674,-0.23025 -0.1875,-0.375 z m -15.75,0.0625 c -0.0816,0.18482 -0.23769,0.41191 -0.4375,0.625 0.24567,0.50562 0.53378,1.00426 0.8125,1.5 0.24342,-0.0323 0.46616,-0.0746 0.71875,-0.0937 -0.38701,-0.66845 -0.76989,-1.34139 -1.09375,-2.03125 z m -9.0625,0.5625 c 0.0802,0.52353 0.089,0.58122 0,0 z m 26.34375,0.125 c -0.4253,0.23798 -0.7302,0.26426 -0.96875,0.0937 -0.0598,0.0806 -0.14733,0.15497 -0.25,0.21875 0.58036,0.34165 0.77803,1.31514 0.5625,1.875 0.14317,8.6e-4 0.30064,0.0498 0.4375,0.125 -0.25516,0.0619 -0.4876,0.19825 -0.6875,0.34375 -0.015,-0.0427 -0.0434,-0.0847 -0.0625,-0.125 -0.23936,0.12315 -0.59562,0.0248 -1.0625,-0.4375 -0.33131,-0.38796 -0.57282,-1.01924 -0.34375,-1.5 -0.21215,-0.085 -0.39189,-0.17368 -0.5625,-0.21875 -0.12325,0.0751 -0.30825,0.069 -0.53125,-0.0625 -0.15185,0.0464 -0.25842,0.0952 -0.34375,0.15625 -0.59729,0.42735 0.27405,1.21062 0.53125,1.78125 l 1.9375,3.125 c 1.65798,-0.35249 0.32382,-1.47597 0.1875,-2.25 1.76639,0.25142 2.15763,-1.93779 1.3125,-3.125 -0.005,-0.007 -0.0262,0.007 -0.0312,0 -0.0491,0.008 -0.0748,-0.0104 -0.125,0 z m -25.625,1.03125 c -2.2e-4,0.0428 0.003,0.37155 0,0.875 0.003,-0.67431 0,-0.91774 0,-0.875 z m 19.9375,0.8125 c -0.34389,0.0268 -0.69064,0.13212 -0.96875,0.34375 -0.12249,0.0573 -0.2145,0.11261 -0.3125,0.1875 -0.39709,0.30339 -0.5813,0.75405 -0.625,1.21875 -6.3e-4,0.007 6e-4,0.0246 0,0.0312 0.28438,-0.12987 0.63772,-0.0726 1,0.0625 -0.0508,-0.31258 0.0253,-0.61498 0.34375,-0.84375 1.6325,-0.84787 2.39492,2.85056 0.625,2.125 -0.0594,0.42322 -0.18007,0.84116 -0.375,1.09375 0.44091,-0.27693 0.99374,-0.40052 1.59375,-0.34375 1.21695,-0.84746 1.24363,-3.00418 -0.28125,-3.6875 -0.30752,-0.16166 -0.65611,-0.21434 -1,-0.1875 z m -9.25,1.5625 c -0.2448,0.0238 -0.45338,0.058 -0.6875,0.0937 1.13282,1.67435 2.40699,3.20798 3.8125,4.5625 0.30316,-0.1403 0.45947,-0.38569 0.28125,-0.6875 -0.14778,-0.14532 -0.32383,-0.28844 -0.46875,-0.4375 -0.12628,-0.0851 -0.25586,-0.15874 -0.4375,-0.25 -0.0861,0.063 -0.14904,0.12857 -0.21875,0.1875 -0.0207,-0.22282 -0.044,-0.46149 -0.0625,-0.6875 -0.67761,-0.75178 -1.3032,-1.56841 -1.90625,-2.40625 -0.008,-0.006 -0.0242,-0.0254 -0.0312,-0.0312 -0.12638,-0.0987 -0.20681,-0.20098 -0.28125,-0.34375 z m 44.5625,1.5 c -0.19267,0.2346 -0.36563,0.48909 -0.5625,0.71875 0.18991,0.12338 0.38241,0.24071 0.5625,0.375 0.0964,-0.1131 0.18691,-0.22927 0.28125,-0.34375 l 0,-0.5625 c -0.0972,-0.056 -0.18772,-0.126 -0.28125,-0.1875 z m -2.46875,2.75 c -1.39757,1.33032 -2.97616,2.5449 -4.6875,3.59375 -1.03176,0.63235 -2.08086,1.17299 -3.15625,1.65625 0.21106,0.14628 0.41736,0.28501 0.625,0.46875 0.97779,-0.45574 1.96456,-0.98534 2.90625,-1.5625 0.81362,-0.49864 1.59742,-1.02957 2.34375,-1.59375 0.002,-0.1 -0.0209,-0.18728 0,-0.3125 0.11542,0.0127 0.2178,0.044 0.3125,0.0625 0.58647,-0.45667 1.14627,-0.9431 1.6875,-1.4375 -0.01,-0.28991 -0.0253,-0.56691 -0.0312,-0.875 z m -47.75,0.0625 c -0.0658,0.21625 -0.25705,0.51682 -0.5,0.78125 1.97107,2.7309 4.27791,5.15173 6.8125,7.15625 0.009,-0.25326 -0.006,-0.49862 -0.0312,-0.71875 0.73201,-0.22581 0.68216,0.46027 0.40625,1 1.7334,1.33164 3.58289,2.48449 5.5,3.46875 0.17947,-0.0714 0.32927,-0.19067 0.40625,-0.40625 0.11546,-0.0471 0.23009,-0.13152 0.34375,-0.1875 -1.46574,-0.72706 -2.88954,-1.53189 -4.25,-2.46875 -0.13624,0.0912 -0.2889,0.0668 -0.1875,-0.1875 -1.67101,-1.16898 -3.2483,-2.49692 -4.71875,-3.96875 -0.009,0.0288 -0.055,0.0652 -0.0625,0.0937 0.0259,0.0577 0.0436,0.1033 0.0625,0.15625 -0.73973,-0.0475 -1.34985,-0.37258 -1.46875,-1.125 0.11643,-0.0951 0.21127,-0.24851 0.21875,-0.4375 -0.88644,-0.9858 -1.74872,-2.05266 -2.53125,-3.15625 z m 3.78125,4.46875 c -0.35218,-0.35252 -0.72372,-0.69286 -1.0625,-1.0625 0.0867,1.18069 0.57998,1.35881 1.0625,1.0625 z m 5.6875,-4.375 c -0.17618,0.13487 -0.35961,0.24801 -0.5625,0.34375 1.25699,1.19693 2.57362,2.28617 4,3.21875 0.0598,-0.16657 0.14577,-0.34437 0.25,-0.53125 0.37514,0.28064 0.76862,0.45823 1.125,0.5625 -1.7075,-1.01543 -3.33653,-2.2063 -4.8125,-3.59375 z m 9,5.65625 c -0.20111,0.16001 -0.40113,0.33401 -0.625,0.46875 0.63182,0.25486 1.29011,0.4786 1.9375,0.6875 -0.13017,-0.25686 -0.1113,-0.46532 0,-0.6875 -0.43965,-0.14539 -0.88017,-0.30153 -1.3125,-0.46875 z m 19.75,0.15625 c -0.24203,0.0902 -0.47562,0.1646 -0.71875,0.25 0.10238,0.0409 0.20772,0.0692 0.34375,0.125 0.11436,0.14501 0.20814,0.22413 0.3125,0.34375 0.35211,-0.12219 0.6834,-0.23418 1.03125,-0.375 -0.33478,-0.13763 -0.65837,-0.24304 -0.96875,-0.34375 z m -1.0625,0.34375 c -0.0868,0.0289 -0.16292,0.0662 -0.25,0.0937 -0.0143,0.18079 -0.0238,0.40641 0.0312,0.6875 0.16741,-0.0517 0.3328,-0.13381 0.5,-0.1875 -0.10227,-0.20104 -0.21144,-0.39412 -0.28125,-0.59375 z m -2.46875,0.6875 c -1.35343,0.3067 -2.7276,0.49056 -4.09375,0.59375 0.13953,0.20718 0.13787,0.44963 0.0625,0.6875 1.46357,-0.10924 2.92752,-0.31722 4.375,-0.65625 -0.12807,-0.22224 -0.22667,-0.41266 -0.34375,-0.625 z m -11.65625,0.125 c -0.0359,0.2219 -0.0682,0.47015 -0.15625,0.6875 2.27973,0.46325 4.62652,0.60557 6.96875,0.5 -0.19831,-0.30833 -0.68315,-0.23231 -1.1875,-0.125 0.0518,-0.15443 0.11371,-0.31964 0.1875,-0.5 -0.37122,0.004 -0.7546,0.01 -1.125,0 0.0588,0.21031 0.0988,0.41279 0.15625,0.625 -0.45656,0.0279 -0.8178,-0.0853 -0.9375,-0.6875 -1.31187,-0.0745 -2.62124,-0.24022 -3.90625,-0.5 z m 25.96875,1.09375 c -0.70799,0.50873 -1.42978,1.00436 -2.1875,1.46875 -0.16914,0.10366 -0.36107,0.1808 -0.53125,0.28125 1.30344,0.0607 -1.46535,2.31608 -2.625,1.4375 -0.008,0.004 -0.0231,-0.004 -0.0312,0 -1.26869,0.60958 -2.53738,1.11763 -3.84375,1.5625 -0.0766,0.0663 -0.14931,0.093 -0.25,0.0937 -0.33701,0.11181 -0.6914,0.21207 -1.03125,0.3125 -0.13102,0.25056 -0.4185,0.26971 -0.78125,0.21875 -0.009,0.003 -0.023,0.029 -0.0312,0.0312 -0.59445,0.15986 -1.18469,0.30864 -1.78125,0.4375 -0.14292,1.1513 -2.57259,1.26382 -3.15625,0.5 -0.0996,0.0121 -0.21289,0.0199 -0.3125,0.0312 0.12651,0.24479 0.26315,0.54264 0.4375,0.84375 4.94648,-0.59849 9.84891,-2.25728 14.375,-5.03125 0.81419,-0.499 1.61489,-1.01061 2.375,-1.5625 -0.22612,-0.19319 -0.43118,-0.39911 -0.625,-0.625 z m -32.625,4.4375 c -0.16436,0.28709 -0.51398,0.45133 -0.90625,0.5625 0.90372,0.35252 1.85417,0.65317 2.78125,0.9375 0.0303,-0.0684 0.068,-0.11727 0.0937,-0.1875 1.3361,0.11046 1.58558,0.32099 1.40625,0.625 1.32058,0.3441 2.64757,0.6297 4,0.8125 -0.89773,-0.17049 -1.81971,-0.65308 -2.125,-1.28125 -0.19498,-0.0394 -0.39947,-0.051 -0.59375,-0.0937 -0.0842,-0.002 -0.15575,-0.0336 -0.21875,-0.0625 -0.18748,-0.0426 -0.37573,-0.0794 -0.5625,-0.125 0.0178,0.0754 0.0513,0.14254 0.0625,0.21875 -0.19179,-0.13512 -0.42274,-0.2803 -0.65625,-0.40625 -0.0185,-0.005 -0.044,-0.0263 -0.0625,-0.0312 -1.08858,-0.28884 -2.16173,-0.57727 -3.21875,-0.96875 z m 15.875,1.96875 c -2.13632,0.23417 -4.25219,0.28852 -6.375,0.125 -0.0941,0.52125 -0.75059,0.71042 -1.5,0.6875 2.78151,0.32632 5.62615,0.33333 8.4375,0 -0.18843,-0.2843 -0.38904,-0.53665 -0.5625,-0.8125 z" id="path6700" inkscape:connector-curvature="0"/>
  </g>
  <metadata>
    <rdf:RDF>
      <cc:Work>
        <dc:format>image/svg+xml</dc:format>
        <dc:type rdf:resource="http://purl.org/dc/dcmitype/StillImage"/>
        <cc:license rdf:resource="http://creativecommons.org/licenses/publicdomain/"/>
        <dc:publisher>
          <cc:Agent rdf:about="http://openclipart.org/">
            <dc:title>Open Clip Art Library</dc:title>
          </cc:Agent>
        </dc:publisher>
        <dc:title>ticket admit one with stamp</dc:title>
        <dc:date>2011-03-04T21:37:46</dc:date>
        <dc:description/>
        <dc:source>http://openclipart.org/detail/125365/ticket-admit-one-with-stamp-by-rg1024</dc:source>
        <dc:creator>
          <cc:Agent>
            <dc:title>rg1024</dc:title>
          </cc:Agent>
        </dc:creator>
        <dc:subject>
          <rdf:Bag>
            <rdf:li>admit</rdf:li>
            <rdf:li>admit one</rdf:li>
            <rdf:li>clip art</rdf:li>
            <rdf:li>clipart</rdf:li>
            <rdf:li>stamp</rdf:li>
            <rdf:li>ticket</rdf:li>
          </rdf:Bag>
        </dc:subject>
      </cc:Work>
      <cc:License rdf:about="http://creativecommons.org/licenses/publicdomain/">
        <cc:permits rdf:resource="http://creativecommons.org/ns#Reproduction"/>
        <cc:permits rdf:resource="http://creativecommons.org/ns#Distribution"/>
        <cc:permits rdf:resource="http://creativecommons.org/ns#DerivativeWorks"/>
      </cc:License>
    </rdf:RDF>
  </metadata>
</svg>
